<?xml version="1.0" encoding="UTF-8"?>
<svg viewBox="0 0 240 104" xmlns="http://www.w3.org/2000/svg">
    <g fill="#fff" fill-rule="evenodd">
        <g transform="translate(102.69 65.672)">
            <path id="Path" d="m10.424 10.615c0.083582-0.083582 0.14328-0.1194 0.21493-0.1194 0.083582 0 0.15522 0.071642 0.25075 0.15522l0.70448 0.77612c0.1791 0.19104 0.19104 0.29851 0 0.47761-1.1104 1.1343-2.8299 1.8746-4.5731 1.8746-3.5821 0-6.3642-2.8179-6.3642-6.4358 0-3.6179 2.7821-6.4358 6.3642-6.4358 1.7672 0 3.4746 0.7403 4.609 1.8985 0.1791 0.1791 0.14328 0.26269-0.035821 0.47761l-0.72836 0.77612c-0.10746 0.10746-0.1791 0.15522-0.25075 0.15522s-0.14328-0.047761-0.22687-0.14328c-0.77612-0.83582-1.8627-1.5045-3.3672-1.5045-2.6746 0-4.5493 2.2209-4.5493 4.7642 0 2.5552 1.8746 4.7642 4.5493 4.7642 1.5045 0.035821 2.591-0.6209 3.403-1.4806z"/>
            <path id="Shape" d="m21.636 0.93134c3.5821 0 6.3403 2.8179 6.3403 6.4358 0 3.6179-2.7701 6.4358-6.3403 6.4358-3.5821 0-6.3642-2.8179-6.3642-6.4358 0-3.6179 2.7821-6.4358 6.3642-6.4358zm0 11.2c2.6627 0 4.5493-2.2209 4.5493-4.7642 0-2.5552-1.8985-4.7642-4.5493-4.7642-2.6746 0-4.5493 2.2209-4.5493 4.7642-0.01194 2.5433 1.8746 4.7642 4.5493 4.7642z" fill-rule="nonzero"/>
            <path id="Path" d="m40.37 11.928c0.25075 0 0.32239 0.071642 0.32239 0.33433v0.95522c0 0.26269-0.071642 0.33433-0.32239 0.33433h-7.2478c-0.25075 0-0.32239-0.071642-0.32239-0.33433v-11.725c0-0.26269 0.071642-0.33433 0.32239-0.33433h1.1224c0.25075 0 0.33433 0.071642 0.33433 0.33433v10.436h5.791z"/>
            <path id="Path" d="m52.609 11.928c0.25075 0 0.32239 0.071642 0.32239 0.33433v0.95522c0 0.26269-0.071642 0.33433-0.32239 0.33433h-7.2478c-0.25075 0-0.32239-0.071642-0.32239-0.33433v-11.725c0-0.26269 0.071642-0.33433 0.32239-0.33433h1.1104c0.25075 0 0.33433 0.071642 0.33433 0.33433v10.436h5.803z"/>
            <path id="Path" d="m57.588 13.564c-0.25075 0-0.32239-0.071642-0.32239-0.33433v-11.725c0-0.26269 0.071642-0.33433 0.32239-0.33433h7.9403c0.25075 0 0.32239 0.071642 0.32239 0.33433v0.9791c0 0.26269-0.071642 0.33433-0.32239 0.33433h-6.4836v3.6657h6.1493c0.26269 0 0.32239 0.071642 0.32239 0.33433v0.99104c0 0.25075-0.047761 0.32239-0.32239 0.32239h-6.1493v3.797h6.5791c0.25075 0 0.32239 0.071642 0.32239 0.33433v0.9791c0 0.26269-0.071642 0.33433-0.32239 0.33433h-8.0358v-0.01194z"/>
            <path id="Path" d="m79.654 10.615c0.083582-0.083582 0.14328-0.1194 0.21493-0.1194 0.083582 0 0.15522 0.071642 0.25075 0.15522l0.70448 0.77612c0.1791 0.19104 0.19104 0.29851 0 0.47761-1.1104 1.1343-2.8299 1.8746-4.5731 1.8746-3.5821 0-6.3642-2.8179-6.3642-6.4358 0-3.6179 2.7821-6.4358 6.3642-6.4358 1.7672 0 3.4746 0.7403 4.609 1.8985 0.1791 0.1791 0.14328 0.26269-0.035821 0.47761l-0.72836 0.77612c-0.10746 0.10746-0.1791 0.15522-0.25075 0.15522s-0.14328-0.047761-0.22687-0.14328c-0.77612-0.83582-1.8627-1.5045-3.3672-1.5045-2.6746 0-4.5493 2.2209-4.5493 4.7642 0 2.5552 1.8746 4.7642 4.5493 4.7642 1.5045 0.035821 2.591-0.6209 3.403-1.4806z"/>
            <path id="Path" d="m94.197 1.1582c0.26269 0 0.33433 0.071642 0.33433 0.33433v0.99104c0 0.25075-0.071642 0.33433-0.33433 0.33433h-3.7015v10.4c0 0.26269-0.071642 0.33433-0.33433 0.33433h-1.1104c-0.22687 0-0.32239-0.071642-0.32239-0.33433v-10.4h-3.7254c-0.22687 0-0.32239-0.083582-0.32239-0.33433v-0.99104c0-0.26269 0.083582-0.33433 0.32239-0.33433h9.194z"/>
            <path id="Path" d="m98.71 1.4925c0-0.26269 0.071642-0.33433 0.32239-0.33433h1.1224c0.25075 0 0.33433 0.071642 0.33433 0.33433v11.725c0 0.26269-0.083582 0.33433-0.33433 0.33433h-1.1224c-0.25075 0-0.32239-0.071642-0.32239-0.33433v-11.725z"/>
            <path id="Path" d="m104.68 1.4925c-0.10746-0.19104-0.035821-0.33433 0.14328-0.33433h1.3254c0.26269 0 0.40597 0.083582 0.53731 0.33433l4.1433 8.597h0.035821l4.1433-8.597c0.10746-0.25075 0.25075-0.33433 0.51343-0.33433h1.3254c0.19104 0 0.25075 0.14328 0.14328 0.33433l-5.8507 12.048c-0.083583 0.14328-0.14328 0.19104-0.25075 0.19104h-0.10746c-0.1194 0-0.1791-0.047761-0.26269-0.19104l-5.8388-12.048z"/>
            <path id="Path" d="m121.54 13.564c-0.25075 0-0.32239-0.071642-0.32239-0.33433v-11.725c0-0.26269 0.071642-0.33433 0.32239-0.33433h7.9403c0.25075 0 0.32239 0.071642 0.32239 0.33433v0.9791c0 0.26269-0.071642 0.33433-0.32239 0.33433h-6.4836v3.6657h6.1493c0.26269 0 0.32239 0.071642 0.32239 0.33433v0.99104c0 0.25075-0.047761 0.32239-0.32239 0.32239h-6.1493v3.797h6.5791c0.25075 0 0.32239 0.071642 0.32239 0.33433v0.9791c0 0.26269-0.071641 0.33433-0.32239 0.33433h-8.0358v-0.01194z"/>
        </g>
        <g transform="translate(39.403 40.597)">
            <path id="Shape" d="m5.3612 21.146c0 0.53731-0.15522 0.71642-0.71642 0.71642h-2.806c-0.53731 0-0.71642-0.1791-0.71642-0.71642v-19.415c0-0.56119 0.1791-0.71642 0.71642-0.71642h7.9522c3.4507 0 7.4507 1.6955 7.4507 6.5194 0 3.6299-2.2687 5.5045-4.8478 6.197l4.8 7.2119c0.38209 0.53731 0.1194 0.9194-0.56119 0.9194h-2.9015c-0.56119 0-0.89552-0.23881-1.2537-0.71642l-4.7045-7.0925h-2.4119v7.0925zm4.0478-10.842c2.591 0 3.5463-1.0746 3.5463-2.794 0-1.6955-0.95522-2.7343-3.5463-2.7343h-4.0478v5.5403h4.0478v-0.01194z" fill-rule="nonzero"/>
            <path id="Path" d="m21.887 21.863c-0.56119 0-0.7403-0.1791-0.7403-0.71642v-19.415c0-0.56119 0.1791-0.71642 0.7403-0.71642h13.433c0.56119 0 0.71642 0.14328 0.71642 0.71642v2.3284c0 0.56119-0.14328 0.71642-0.71642 0.71642h-9.9463v4.7403h9.4448c0.56119 0 0.71642 0.14328 0.71642 0.71642v2.3284c0 0.56119-0.14328 0.71642-0.71642 0.71642h-9.4448v4.8597h10.101c0.56119 0 0.71642 0.14328 0.71642 0.71642v2.3284c0 0.53731-0.14328 0.71642-0.71642 0.71642h-13.588v-0.035821z"/>
            <path id="Path" d="m44.107 7.0567c0 1.6716 1.6358 2.0299 3.809 2.3881 3.391 0.56119 7.8328 1.0985 7.8328 6.3761 0 3.809-3.2119 6.4358-7.9284 6.4358-3.2119 0-6.1015-0.83582-8.2149-2.3881-0.41791-0.29851-0.44179-0.47761-0.14328-0.9791l1.2179-2.1134c0.20299-0.32239 0.35821-0.50149 0.56119-0.50149 0.1194 0 0.23881 0.059702 0.41791 0.1791 1.8507 1.194 4.0239 1.9701 6.0179 1.9701 2.5672 0 3.7851-0.9194 3.7851-2.3881 0-1.6955-1.4925-2.1134-3.5463-2.5075-3.4507-0.6209-8.1075-1.0985-8.1075-6.3164 0-4.1672 3.3672-6.5791 7.809-6.5791 2.806 0 4.5851 0.50149 7.1761 2.0896 0.41791 0.23881 0.47761 0.47761 0.15522 0.9791l-1.194 2.0299c-0.21493 0.32239-0.35821 0.47761-0.56119 0.47761-0.1194 0-0.23881-0.059701-0.41791-0.14328-1.6716-1.0388-3.1522-1.6119-5.003-1.6119-2.2448-0.01194-3.6657 0.82388-3.6657 2.603z"/>
            <path id="Path" d="m73.839 1.0149c0.56119 0 0.71642 0.14328 0.71642 0.71642v2.4119c0 0.56119-0.14328 0.71642-0.71642 0.71642h-5.6239v16.287c0 0.53731-0.14328 0.71642-0.71642 0.71642h-2.794c-0.53731 0-0.71642-0.1791-0.71642-0.71642v-16.287h-5.6c-0.56119 0-0.71642-0.14328-0.71642-0.71642v-2.4119c0-0.56119 0.14328-0.71642 0.71642-0.71642h15.451z"/>
            <path id="Shape" d="m94.83 21.146c0.20299 0.38209 0.083582 0.71642-0.32239 0.71642h-3.2716c-0.6209 0-0.89552-0.20299-1.1582-0.71642l-1.6716-3.3313h-8.8716l-1.6716 3.3313c-0.26269 0.50149-0.53731 0.71642-1.1582 0.71642h-3.2716c-0.41791 0-0.56119-0.32239-0.32239-0.71642l10.281-20.012c0.1194-0.26269 0.26269-0.41791 0.50149-0.41791h0.1791c0.23881 0 0.38209 0.14328 0.50149 0.41791l10.257 20.012zm-10.901-12.896-2.9493 5.8627h5.9582l-2.9493-5.8627h-0.059702z" fill-rule="nonzero"/>
            <path id="Path" d="m96.227 13.29v-11.558c0-0.56119 0.14328-0.71642 0.71642-0.71642h2.794c0.53731 0 0.71642 0.14328 0.71642 0.71642v11.403c0 3.6299 1.6358 5.2776 4.6448 5.2776 3.009 0 4.6448-1.6358 4.6448-5.2776v-11.403c0-0.56119 0.15522-0.71642 0.71642-0.71642h2.806c0.53731 0 0.71642 0.14328 0.71642 0.71642v11.558c0 5.9224-4.0239 8.9672-8.8716 8.9672-4.8716 0-8.8836-3.0448-8.8836-8.9672z"/>
            <path id="a" d="m122.96 21.146c0 0.53731-0.15522 0.71642-0.71642 0.71642h-2.806c-0.53731 0-0.71642-0.1791-0.71642-0.71642v-19.415c0-0.56119 0.1791-0.71642 0.71642-0.71642h7.9522c3.4507 0 7.4507 1.6955 7.4507 6.5194 0 3.6299-2.2687 5.5045-4.8597 6.197l4.8 7.2119c0.38209 0.53731 0.1194 0.9194-0.56119 0.9194h-2.8896c-0.56119 0-0.89552-0.23881-1.2537-0.71642l-4.7045-7.0806h-2.4119v7.0806zm4.0478-10.842c2.591 0 3.5463-1.0746 3.5463-2.794 0-1.6955-0.95522-2.7343-3.5463-2.7343h-4.0478v5.5403h4.0478v-0.01194z" fill-rule="nonzero"/>
            <path d="m158.95 21.146c0.20298 0.38209 0.083582 0.71642-0.32239 0.71642h-3.2716c-0.6209 0-0.89552-0.20299-1.1582-0.71642l-1.6716-3.3313h-8.8716l-1.6716 3.3313c-0.26269 0.50149-0.53731 0.71642-1.1582 0.71642h-3.2716c-0.41791 0-0.56119-0.32239-0.32239-0.71642l10.281-20.012c0.1194-0.26269 0.26269-0.41791 0.50149-0.41791h0.1791c0.23881 0 0.38209 0.14328 0.50149 0.41791l10.257 20.012zm-10.901-12.896-2.9493 5.8627h5.9582l-2.9493-5.8627h-0.059702z" fill-rule="nonzero"/>
            <path id="b" d="m165.99 9.7672h-0.059702v11.379c0 0.53731-0.15522 0.71642-0.71642 0.71642h-2.7701c-0.56119 0-0.7403-0.1791-0.7403-0.71642v-20.048c0-0.26269 0.1194-0.38209 0.38209-0.38209h0.095523c0.23881 0 0.38209 0.083582 0.59702 0.26269l12.872 12.119h0.059702v-11.379c0-0.56119 0.15522-0.71642 0.71642-0.71642h2.806c0.56119 0 0.71642 0.14328 0.71642 0.71642v20.048c0 0.26269-0.1194 0.38209-0.38209 0.38209h-0.095522c-0.23881 0-0.35821-0.083582-0.59702-0.26269l-12.884-12.119z"/>
            <path d="m198.79 1.0149c0.56119 0 0.71642 0.14328 0.71642 0.71642v2.4119c0 0.56119-0.14328 0.71642-0.71642 0.71642h-5.6239v16.287c0 0.53731-0.14328 0.71642-0.71642 0.71642h-2.794c-0.53731 0-0.71642-0.1791-0.71642-0.71642v-16.287h-5.6c-0.56119 0-0.71642-0.14328-0.71642-0.71642v-2.4119c0-0.56119 0.14328-0.71642 0.71642-0.71642h15.451z"/>
        </g>
        <path d="m93.203 18.737c1.3964 1.6554 1.1697 4.1144-0.51322 5.4939-1.6829 1.3795-4.1773 1.1516-5.5738-0.50381-8.4621-10.016-20.946-15.906-34.421-15.906-24.73 0-44.769 19.757-44.769 44.131s20.051 44.131 44.769 44.131c13.582 0 26.162-5.9857 34.612-16.146 1.3845-1.6674 3.879-1.9073 5.5738-0.5398 1.6948 1.3675 1.9335 3.8265 0.54902 5.4939-9.9421 11.935-24.754 18.989-40.735 18.989-29.098 0-52.694-23.259-52.694-51.94 0-28.681 23.596-51.94 52.694-51.94 15.85 0.011995 30.554 6.9574 40.508 18.737zm-15.48 10.628c1.468 1.5954 1.3487 4.0665-0.27451 5.5179-1.6232 1.4514-4.1296 1.3315-5.5976-0.2759-4.9293-5.362-11.888-8.4688-19.359-8.4688-14.442 0-26.138 11.564-26.138 25.826 0 14.263 11.708 25.826 26.138 25.826 7.3163 0 14.131-2.9749 19.049-8.1329 1.4919-1.5714 3.9983-1.6554 5.5976-0.17993 1.5993 1.4754 1.6709 3.9465 0.17903 5.5179-6.3973 6.7175-15.301 10.592-24.825 10.592-18.81 0-34.063-15.054-34.063-33.623s15.253-33.623 34.063-33.623c9.7392-0.011996 18.822 4.0425 25.231 11.024z" opacity=".38"/>
    </g>
</svg>
