<svg xmlns="http://www.w3.org/2000/svg" width="200" height="105" viewBox="0 0 200 105">
  <g fill="#9B9B9B" fill-rule="evenodd">
    <path d="M61.3033182,20.9306434 L60.2048919,21.9590747 C59.5631148,21.1698135 58.7238677,20.7273488 57.4156296,20.7273488 C54.9225721,20.7273488 53.8735133,22.3656639 53.8735133,24.4225266 C53.8735133,26.4315552 54.8732047,27.9981193 57.4032877,27.9981193 C58.7115258,27.9981193 59.5631148,27.5676131 60.2172338,26.7663933 L61.2909764,27.7828662 C60.3406525,28.799339 59.06944,29.3255132 57.4032877,29.3255132 C54.0709832,29.3255132 52.3554635,27.3404015 52.3554635,24.4225266 C52.3554635,21.4926931 54.1450344,19.3999549 57.4156296,19.3999549 C59.0941237,19.3999549 60.3529944,19.9261291 61.3033182,20.9306434 Z M72.0222312,24.4225266 C72.0222312,22.4134979 71.0842492,20.7273488 68.7022685,20.7273488 C66.3326297,20.7273488 65.3823059,22.3537054 65.3823059,24.4225266 C65.3823059,26.4435137 66.3449716,27.9981193 68.7022685,27.9981193 C71.0842492,27.9981193 72.0222312,26.4435137 72.0222312,24.4225266 Z M73.540281,24.4225266 C73.540281,27.3404015 71.8247613,29.3255132 68.7022685,29.3255132 C65.5304083,29.3255132 63.864256,27.3404015 63.864256,24.4225266 C63.864256,21.5046516 65.5304083,19.3999549 68.7022685,19.3999549 C71.8864706,19.3999549 73.540281,21.4926931 73.540281,24.4225266 Z M83.9136217,27.8785342 L83.9136217,29.2059282 L76.8417309,29.2059282 L76.8417309,19.5195399 L78.3227552,19.5195399 L78.3227552,27.7350322 L78.1746527,27.8785342 L83.9136217,27.8785342 Z M93.7932875,27.8785342 L93.7932875,29.2059282 L86.7213968,29.2059282 L86.7213968,19.5195399 L88.202421,19.5195399 L88.202421,27.7350322 L88.0543186,27.8785342 L93.7932875,27.8785342 Z M104.253021,27.8785342 L104.253021,29.2059282 L96.6010627,29.2059282 L96.6010627,19.5195399 L104.253021,19.5195399 L104.253021,20.8469339 L97.9339845,20.8469339 L98.0820869,20.9904359 L98.0820869,23.5495558 L97.9339845,23.7050163 L103.660612,23.7050163 L103.660612,25.0204518 L97.9339845,25.0204518 L98.0820869,25.1639538 L98.0820869,27.7350322 L97.9339845,27.8785342 L104.253021,27.8785342 Z M116.255489,20.9306434 L115.157062,21.9590747 C114.515285,21.1698135 113.676038,20.7273488 112.3678,20.7273488 C109.874742,20.7273488 108.825684,22.3656639 108.825684,24.4225266 C108.825684,26.4315552 109.825375,27.9981193 112.355458,27.9981193 C113.663696,27.9981193 114.515285,27.5676131 115.169404,26.7663933 L116.243147,27.7828662 C115.292823,28.799339 114.02161,29.3255132 112.355458,29.3255132 C109.023154,29.3255132 107.307634,27.3404015 107.307634,24.4225266 C107.307634,21.4926931 109.097205,19.3999549 112.3678,19.3999549 C114.046294,19.3999549 115.305165,19.9261291 116.255489,20.9306434 Z M126.90035,19.5195399 L126.90035,20.8469339 L123.308867,20.8469339 L123.382918,20.9904359 L123.382918,29.2059282 L121.901893,29.2059282 L121.901893,20.9904359 L121.988287,20.8469339 L118.384461,20.8469339 L118.384461,19.5195399 L126.90035,19.5195399 Z M131.312568,19.5195399 L131.312568,29.2059282 L129.831544,29.2059282 L129.831544,19.5195399 L131.312568,19.5195399 Z M142.660917,19.5195399 L144.290043,19.5195399 L139.958047,29.2059282 L138.514049,29.2059282 L134.182053,19.5195399 L135.835863,19.5195399 L138.933672,26.6109328 L139.229877,27.5676131 L139.254561,27.5676131 L139.563108,26.6109328 L142.660917,19.5195399 Z M154.749777,27.8785342 L154.749777,29.2059282 L147.097818,29.2059282 L147.097818,19.5195399 L154.749777,19.5195399 L154.749777,20.8469339 L148.43074,20.8469339 L148.578843,20.9904359 L148.578843,23.5495558 L148.43074,23.7050163 L154.157367,23.7050163 L154.157367,25.0204518 L148.43074,25.0204518 L148.578843,25.1639538 L148.578843,27.7350322 L148.43074,27.8785342 L154.749777,27.8785342 Z M10.6667171,5.46590798 C10.6667171,4.16996233 9.74088921,3.49381677 8.02425008,3.49381677 L3.43368702,3.49381677 L3.7422963,3.77554408 L3.7422963,7.09992642 L3.43368702,7.40043556 L7.83136928,7.40043556 C9.83732961,7.40043556 10.6667171,6.4613445 10.6667171,5.46590798 Z M12.9234224,10.7060361 L15.700906,15.8522551 L12.0168827,15.8522551 L9.87590577,11.8329453 C9.23939913,10.6496906 8.35214745,10.1237996 6.53906792,10.1237996 L3.43368702,10.1237996 L3.7422963,10.4055269 L3.7422963,15.8522551 L0.463322686,15.8522551 L0.463322686,0.638979953 L8.02425008,0.638979953 C11.129631,0.638979953 14.0035549,2.14152564 14.0035549,5.3907807 C14.0035549,7.00601732 12.7305416,8.47099937 11.3417999,9.09079946 L11.3417999,9.12836311 C11.862578,9.35374496 12.4990847,9.91719959 12.9234224,10.7060361 Z M29.9205069,12.9974183 L29.9205069,15.8522551 L16.9974932,15.8522551 L16.9974932,0.638979953 L29.9205069,0.638979953 L29.9205069,3.49381677 L19.9678575,3.49381677 L20.2764668,3.7943259 L20.2764668,6.51768997 L19.9678575,6.81819911 L28.994679,6.81819911 L28.994679,9.67303592 L19.9678575,9.67303592 L20.2764668,9.97354506 L20.2764668,12.6969091 L19.9678575,12.9974183 L29.9205069,12.9974183 Z M46.0689158,11.5136544 C46.0689158,13.861382 43.947227,16.0400733 39.125207,16.0400733 C36.3477234,16.0400733 33.6666803,15.1948913 31.6992961,13.3542729 L33.9752896,11.138018 C35.5762002,12.5466546 37.4278559,13.2040183 39.2409354,13.2040183 C41.8062501,13.2040183 42.7320779,12.4151818 42.7320779,11.5699999 C42.7320779,11.0816725 42.2884521,10.3303997 40.2439156,9.84207231 C39.8967302,9.76694502 37.7171771,9.24105403 37.3507036,9.14714493 C34.5732201,8.45221754 32.0850577,7.4379992 32.0850577,4.86488971 C32.0850577,2.44203478 34.4574916,0.451161741 38.9323262,0.451161741 C41.7290978,0.451161741 44.0436674,1.37147098 45.7410184,3.06183488 L43.4457369,5.27808977 C42.3656044,4.07605322 40.7068295,3.28721673 38.89375,3.28721673 C36.3477234,3.28721673 35.4218956,4.07605322 35.4218956,4.78976242 C35.4218956,5.42834434 36.1355545,5.82276259 38.662293,6.44256268 C39.0094785,6.53647179 40.822558,6.9872355 41.1890315,7.06236278 C44.4487171,7.83241745 46.0689158,9.48521771 46.0689158,11.5136544 Z M60.9635995,0.638979953 L60.9635995,3.49381677 L55.3893444,3.49381677 L55.5629371,3.7943259 L55.5629371,15.8522551 L52.2839635,15.8522551 L52.2839635,3.7943259 L52.4575562,3.49381677 L46.883301,3.49381677 L46.883301,0.638979953 L60.9635995,0.638979953 Z M65.8863458,9.56034499 L70.7855181,9.56034499 L70.4576208,9.25983585 L68.8374221,5.95423533 L68.3552201,4.56438057 L68.3166439,4.58316239 L67.8344419,5.95423533 L66.2142432,9.25983585 L65.8863458,9.56034499 Z M69.782538,0.638979953 L77.2856011,15.8522551 L73.6980182,15.8522551 L72.0585314,12.5090909 L72.2514122,12.2273636 L64.4011636,12.2273636 L64.5940444,12.5090909 L62.9738457,15.8522551 L59.3669747,15.8522551 L66.889326,0.638979953 L69.782538,0.638979953 Z M92.7975034,0.638979953 L92.7975034,8.84663579 C92.7975034,13.3918365 90.4443576,16.0400733 85.468033,16.0400733 C80.4724202,16.0400733 78.0999864,13.4294001 78.0999864,8.84663579 L78.0999864,0.638979953 L81.37896,0.638979953 L81.37896,8.82785397 C81.37896,11.7014726 82.4590925,13.1852365 85.4487449,13.1852365 C88.3998212,13.1852365 89.5185298,11.7014726 89.5185298,8.82785397 L89.5185298,0.638979953 L92.7975034,0.638979953 Z M105.840531,5.46590798 C105.840531,4.16996233 104.914704,3.49381677 103.198064,3.49381677 L98.6075014,3.49381677 L98.9161107,3.77554408 L98.9161107,7.09992642 L98.6075014,7.40043556 L103.005184,7.40043556 C105.011144,7.40043556 105.840531,6.4613445 105.840531,5.46590798 Z M108.097237,10.7060361 L110.87472,15.8522551 L107.190697,15.8522551 L105.04972,11.8329453 C104.413214,10.6496906 103.525962,10.1237996 101.712882,10.1237996 L98.6075014,10.1237996 L98.9161107,10.4055269 L98.9161107,15.8522551 L95.6371371,15.8522551 L95.6371371,0.638979953 L103.198064,0.638979953 C106.303445,0.638979953 109.177369,2.14152564 109.177369,5.3907807 C109.177369,7.00601732 107.904356,8.47099937 106.515614,9.09079946 L106.515614,9.12836311 C107.036392,9.35374496 107.672899,9.91719959 108.097237,10.7060361 Z M117.244073,9.56034499 L122.143245,9.56034499 L121.815348,9.25983585 L120.195149,5.95423533 L119.712947,4.56438057 L119.674371,4.58316239 L119.192169,5.95423533 L117.57197,9.25983585 L117.244073,9.56034499 Z M121.140265,0.638979953 L128.643328,15.8522551 L125.055745,15.8522551 L123.416258,12.5090909 L123.609139,12.2273636 L115.75889,12.2273636 L115.951771,12.5090909 L114.331573,15.8522551 L110.724702,15.8522551 L118.247053,0.638979953 L121.140265,0.638979953 Z M144.405975,0.638979953 L144.405975,15.8522551 L141.64778,15.8522551 L134.607631,7.47556285 L133.450346,5.69128984 L133.41177,5.69128984 L133.41177,15.8522551 L130.132796,15.8522551 L130.132796,0.638979953 L132.890991,0.638979953 L140.008293,9.01567218 L141.088426,10.7435997 L141.127002,10.7435997 L141.127002,0.638979953 L144.405975,0.638979953 Z M160.072182,0.638979953 L160.072182,3.49381677 L154.497927,3.49381677 L154.67152,3.7943259 L154.67152,15.8522551 L151.392546,15.8522551 L151.392546,3.7943259 L151.566139,3.49381677 L145.991884,3.49381677 L145.991884,0.638979953 L160.072182,0.638979953 Z" transform="translate(39.16 44.244)"/>
    <path fill-rule="nonzero" d="M38.0039916,2.24237484 C40.4824809,1.5380968 43.0027652,1.02342155 45.5423408,0.698349094 C63.731648,-1.68309451 82.5870144,5.75919301 94.1023754,21.7571756 C95.4531996,23.6338394 95.0366768,26.2636613 93.1720456,27.631047 C91.3074144,28.9984328 88.7007728,28.5855813 87.3499486,26.7089175 C86.1647026,25.062287 84.8867901,23.5236709 83.5286088,22.0950328 C83.2892467,21.9378165 83.0623774,21.7532588 82.852346,21.5413597 C81.5970214,20.2748717 80.284045,19.1019979 78.9219397,18.0227382 C78.6778869,17.9040252 78.4417083,17.7594953 78.2170471,17.5886365 C67.6441692,9.54777632 54.6263941,7.09599531 42.6521435,9.74302783 C37.0304867,11.0202396 31.5666098,13.4503308 26.60607,17.0880322 C13.8046862,26.475642 7.5452328,41.5663948 8.77669906,56.3686076 C8.97788952,58.7153904 9.36567227,61.048954 9.94004731,63.3447782 C12.3000937,72.692164 17.7146317,81.3289725 25.9499212,87.5920554 C29.6640445,90.4167117 33.6798757,92.5516581 37.8461917,94.0181476 C50.8108373,98.5127097 65.6888329,96.7596707 77.6435072,87.9929764 C77.847025,87.8437311 78.0593824,87.7156937 78.2779816,87.6084528 C79.871113,86.3939998 81.400298,85.054293 82.852346,83.5893322 C83.0179519,83.4222537 83.1940259,83.2721734 83.3784382,83.1390913 C84.60341,81.8592337 85.7644004,80.490038 86.8524559,79.0327624 C88.2358266,77.1799595 90.8492765,76.812663 92.6897595,78.2123829 C94.5302425,79.6121027 94.9008052,82.2487933 93.5174345,84.1015962 C80.9634504,100.915641 60.2618339,107.890188 41.0963603,103.664272 C38.657912,103.13213 36.2501531,102.420925 33.8937371,101.530657 C24.6826901,98.0763226 16.3500748,91.9413184 10.1472018,83.3238331 C4.90676609,76.0434362 1.80562892,67.8513736 0.723218373,59.5089063 C-1.05172526,46.3460178 2.11315084,32.5122096 10.6495339,21.0790958 C17.7468511,11.5733795 27.4482625,5.21250087 38.0039916,2.24237484 Z M28.0544722,28.3041544 C41.2793471,14.9616739 62.7211059,14.9616739 75.9459808,28.3041544 C77.573749,29.9463979 77.573749,32.6090008 75.9459808,34.2512444 C74.3182126,35.8934879 71.6790788,35.8934879 70.0513106,34.2512444 C60.0819722,24.193251 43.9184809,24.193251 33.9491424,34.2512444 C23.9798039,44.3092377 23.9798039,60.616467 33.9491424,70.6744603 C43.9184809,80.7324536 60.0819722,80.7324536 70.0513106,70.6744603 C71.6790788,69.0322167 74.3182126,69.0322167 75.9459808,70.6744603 C77.573749,72.3167039 77.573749,74.9793067 75.9459808,76.6215503 C62.7211059,89.9640308 41.2793471,89.9640308 28.0544722,76.6215503 C14.8295973,63.2790698 14.8295973,41.6466348 28.0544722,28.3041544 Z" opacity=".498"/>
  </g>
</svg>
