<svg xmlns="http://www.w3.org/2000/svg" viewBox="0 0 196 97">
    <g fill="none">
        <g fill="#FFF">
            <path d="M87.5 18C88.8 19.5 88.6 21.8 87 23.1 85.5 24.3 83.1 24.1 81.8 22.6 74 13.3 62.4 7.9 49.8 7.9 26.8 7.9 8.2 26.2 8.2 48.7 8.2 71.3 26.8 89.6 49.8 89.6 62.5 89.6 74.2 84 82 74.6 83.3 73.1 85.6 72.9 87.2 74.1 88.8 75.4 89 77.7 87.7 79.2 78.5 90.2 64.7 96.8 49.8 96.8 22.8 96.8 0.8 75.3 0.8 48.7 0.8 22.2 22.8 0.7 49.8 0.7 64.6 0.7 78.3 7.1 87.5 18ZM73.1 27.8C74.5 29.3 74.4 31.6 72.9 32.9 71.4 34.3 69 34.1 67.7 32.7 63.1 27.7 56.6 24.8 49.7 24.8 36.2 24.8 25.3 35.5 25.3 48.7 25.3 61.9 36.2 72.6 49.7 72.6 56.5 72.6 62.8 69.9 67.4 65.1 68.8 63.6 71.1 63.6 72.6 64.9 74.1 66.3 74.1 68.6 72.7 70 66.8 76.2 58.5 79.8 49.7 79.8 32.2 79.8 18 65.9 18 48.7 18 31.5 32.2 17.6 49.7 17.6 58.7 17.6 67.2 21.4 73.1 27.8Z" opacity="0.4"/>
            <path d="M98.2 62L97.2 63C96.6 62.3 95.8 61.8 94.5 61.8 92.1 61.8 91.1 63.4 91.1 65.4 91.1 67.4 92.1 68.9 94.5 68.9 95.7 68.9 96.6 68.5 97.2 67.7L98.2 68.7C97.3 69.7 96.1 70.2 94.5 70.2 91.3 70.2 89.7 68.3 89.7 65.4 89.7 62.6 91.4 60.5 94.5 60.5 96.1 60.5 97.3 61 98.2 62ZM108.9 65.4C108.9 63.5 108 61.8 105.7 61.8 103.4 61.8 102.5 63.4 102.5 65.4 102.5 67.4 103.4 68.9 105.7 68.9 108 68.9 108.9 67.4 108.9 65.4ZM110.3 65.4C110.3 68.3 108.7 70.2 105.7 70.2 102.6 70.2 101.1 68.3 101.1 65.4 101.1 62.6 102.6 60.5 105.7 60.5 108.7 60.5 110.3 62.6 110.3 65.4ZM120.6 68.8L120.6 70.1 113.8 70.1 113.8 60.6 115.3 60.6 115.3 68.6 115.1 68.8 120.6 68.8ZM130.4 68.8L130.4 70.1 123.7 70.1 123.7 60.6 125.1 60.6 125.1 68.6 125 68.8 130.4 68.8ZM140.8 68.8L140.8 70.1 133.5 70.1 133.5 60.6 140.8 60.6 140.8 61.9 134.8 61.9 134.9 62.1 134.9 64.6 134.8 64.7 140.3 64.7 140.3 66 134.8 66 134.9 66.1 134.9 68.6 134.8 68.8 140.8 68.8ZM152.7 62L151.6 63C151 62.3 150.2 61.8 149 61.8 146.6 61.8 145.6 63.4 145.6 65.4 145.6 67.4 146.5 68.9 149 68.9 150.2 68.9 151 68.5 151.6 67.7L152.7 68.7C151.8 69.7 150.5 70.2 149 70.2 145.8 70.2 144.1 68.3 144.1 65.4 144.1 62.6 145.8 60.5 149 60.5 150.6 60.5 151.8 61 152.7 62ZM163.2 60.6L163.2 61.9 159.8 61.9 159.9 62.1 159.9 70.1 158.5 70.1 158.5 62.1 158.5 61.9 155.1 61.9 155.1 60.6 163.2 60.6ZM167.8 60.6L167.8 70.1 166.4 70.1 166.4 60.6 167.8 60.6ZM179.1 60.6L180.6 60.6 176.5 70.1 175.1 70.1 171 60.6 172.6 60.6 175.5 67.5 175.8 68.5 175.8 68.5 176.1 67.5 179.1 60.6ZM191 68.8L191 70.1 183.7 70.1 183.7 60.6 191 60.6 191 61.9 185 61.9 185.1 62.1 185.1 64.6 185 64.7 190.5 64.7 190.5 66 185 66 185.1 66.1 185.1 68.6 185 68.8 191 68.8ZM48.2 46.2C48.2 44.8 47.3 44.1 45.5 44.1L41.1 44.1 41.4 44.4 41.4 47.7 41.1 48 45.5 48C47.4 48 48.2 47 48.2 46.2ZM50.6 51.5L53.3 56.7 49.7 56.7 47.6 52.6C46.9 51.5 46 51 44.1 50.9L41.1 50.9 41.4 51.2 41.4 56.7 38.1 56.7 38.1 41.5 45.5 41.5C48.7 41.5 51.6 43 51.5 46.2 51.6 47.9 50.3 49.3 48.8 50 49.5 50.2 50.1 50.8 50.6 51.5ZM67.3 53.8L67.3 56.7 54.5 56.7 54.5 41.5 67.3 41.5 67.3 44.4 57.5 44.4 57.8 44.7 57.8 47.4 57.5 47.7 66.4 47.7 66.4 50.6 57.5 50.6 57.8 50.9 57.8 53.5 57.5 53.8 67.3 53.8ZM83.4 52.3C83.4 54.6 81.3 56.7 76.6 56.7 73.7 56.7 71.1 55.9 69.1 54.1L71.5 51.8C73 53.3 74.8 53.9 76.6 53.8 79.2 53.9 80.1 53.1 80.1 52.3 80.1 51.8 79.6 51 77.7 50.6 77.3 50.5 75.1 50 74.8 50 72 49.2 69.5 48.2 69.4 45.6 69.5 43.2 71.8 41.2 76.3 41.2 79.1 41.2 81.4 42.1 83.1 43.9L80.7 45.9C79.7 44.8 78.1 44 76.3 44.1 73.7 44 72.8 44.8 72.7 45.6 72.8 46.2 73.5 46.6 76 47.1 76.4 47.3 78.2 47.7 78.6 47.7 81.8 48.6 83.4 50.2 83.4 52.3ZM98 41.5L98 44.4 92.4 44.4 92.6 44.7 92.6 56.7 89.4 56.7 89.4 44.7 89.7 44.4 84 44.4 84 41.5 98 41.5ZM102.8 50.3L107.6 50.3 107.3 50 105.8 46.8 105.2 45.3 104.6 46.8 103.1 50 102.8 50.3ZM107 41.5L114.4 56.7 110.8 56.7 109 53.5 109.3 53.2 101.6 53.2 101.9 53.5 100.1 56.7 96.5 56.7 104 41.5 107 41.5ZM129.6 41.5L129.6 49.7C129.6 54.1 127.3 56.7 122.5 56.7 117.4 56.7 115 54.1 115 49.7L115 41.5 118.3 41.5 118.3 49.7C118.3 52.4 119.3 53.9 122.5 53.8 125.2 53.9 126.4 52.4 126.3 49.7L126.3 41.5 129.6 41.5ZM142.4 46.2C142.4 44.8 141.5 44.1 139.8 44.1L135.3 44.1 135.6 44.4 135.6 47.7 135.3 48 139.8 48C141.6 48 142.4 47 142.4 46.2ZM144.8 51.5L147.5 56.7 143.9 56.7 141.8 52.6C141.1 51.5 140.2 51 138.3 50.9L135.3 50.9 135.6 51.2 135.6 56.7 132.3 56.7 132.3 41.5 139.8 41.5C142.9 41.5 145.8 43 145.7 46.2 145.8 47.9 144.5 49.3 143 50 143.7 50.2 144.3 50.8 144.8 51.5ZM153.8 50.3L158.5 50.3 158.2 50 156.7 46.8 156.1 45.3 155.6 46.8 154.1 50 153.8 50.3ZM157.6 41.5L165.1 56.7 161.5 56.7 159.7 53.5 160 53.2 152.3 53.2 152.6 53.5 150.8 56.7 147.2 56.7 154.7 41.5 157.6 41.5ZM180.6 41.5L180.6 56.7 177.9 56.7 171.1 48.2 169.9 46.5 169.9 56.7 166.6 56.7 166.6 41.5 169.3 41.5 176.4 50 177.3 51.8 177.3 41.5 180.6 41.5ZM196.1 41.5L196.1 44.4 190.4 44.4 190.7 44.7 190.7 56.7 187.4 56.7 187.4 44.7 187.7 44.4 182.1 44.4 182.1 41.5 196.1 41.5Z"/>
        </g>
    </g>
</svg>
