<?xml version="1.0" encoding="UTF-8"?>
<svg width="367px" height="132px" viewBox="0 0 367 132" version="1.1" xmlns="http://www.w3.org/2000/svg" xmlns:xlink="http://www.w3.org/1999/xlink">
    <!-- Generator: Sketch 52.6 (67491) - http://www.bohemiancoding.com/sketch -->
    <title>ri-logo-trans-white</title>
    <desc>Created with Sketch.</desc>
    <g id="ri-logo-trans-white" stroke="none" stroke-width="1" fill="none" fill-rule="evenodd">
        <path d="M56.36,69.044 L56.36,78.088 C56.36,78.772 56.17,79 55.448,79 L51.876,79 C51.192,79 50.964,78.772 50.964,78.088 L50.964,53.312 C50.964,52.59 51.192,52.4 51.876,52.4 L62.022,52.4 C66.43,52.4 71.522,54.566 71.522,60.722 C71.522,65.358 68.634,67.752 65.328,68.626 L71.446,77.822 C71.94,78.506 71.598,79 70.724,79 L67.038,79 C66.316,79 65.898,78.696 65.442,78.088 L59.438,69.044 L56.36,69.044 Z M56.36,64.256 L61.528,64.256 C64.834,64.256 66.05,62.888 66.05,60.684 C66.05,58.518 64.834,57.188 61.528,57.188 L56.36,57.188 L56.36,64.256 Z M94.15,79 L76.822,79 C76.1,79 75.872,78.772 75.872,78.088 L75.872,53.312 C75.872,52.59 76.1,52.4 76.822,52.4 L93.96,52.4 C94.682,52.4 94.872,52.59 94.872,53.312 L94.872,56.276 C94.872,56.998 94.682,57.188 93.96,57.188 L81.268,57.188 L81.268,63.23 L93.314,63.23 C94.036,63.23 94.226,63.42 94.226,64.142 L94.226,67.106 C94.226,67.828 94.036,68.018 93.314,68.018 L81.268,68.018 L81.268,74.212 L94.15,74.212 C94.872,74.212 95.062,74.402 95.062,75.124 L95.062,78.088 C95.062,78.772 94.872,79 94.15,79 Z M109.406,56.77 C106.556,56.77 104.732,57.834 104.732,60.114 C104.732,62.242 106.822,62.698 109.596,63.154 C113.928,63.876 119.59,64.56 119.59,71.286 C119.59,76.15 115.486,79.494 109.482,79.494 C105.378,79.494 101.692,78.43 98.994,76.454 C98.462,76.074 98.424,75.846 98.804,75.2 L100.362,72.502 C100.628,72.084 100.818,71.856 101.084,71.856 C101.236,71.856 101.388,71.932 101.616,72.084 C103.972,73.604 106.746,74.592 109.292,74.592 C112.56,74.592 114.118,73.414 114.118,71.552 C114.118,69.386 112.218,68.854 109.596,68.36 C105.188,67.562 99.26,66.954 99.26,60.304 C99.26,54.984 103.554,51.906 109.216,51.906 C112.788,51.906 115.068,52.552 118.374,54.566 C118.906,54.87 118.982,55.174 118.564,55.82 L117.044,58.404 C116.778,58.822 116.588,59.012 116.322,59.012 C116.17,59.012 116.018,58.936 115.79,58.822 C113.662,57.492 111.762,56.77 109.406,56.77 Z M122.23,52.4 L141.952,52.4 C142.674,52.4 142.864,52.59 142.864,53.312 L142.864,56.39 C142.864,57.112 142.674,57.302 141.952,57.302 L134.77,57.302 L134.77,78.088 C134.77,78.772 134.58,79 133.858,79 L130.286,79 C129.602,79 129.374,78.772 129.374,78.088 L129.374,57.302 L122.23,57.302 C121.508,57.302 121.318,57.112 121.318,56.39 L121.318,53.312 C121.318,52.59 121.508,52.4 122.23,52.4 Z M155.232,52.552 L168.342,78.088 C168.608,78.582 168.456,79 167.924,79 L163.744,79 C162.946,79 162.604,78.734 162.262,78.088 L160.134,73.832 L148.81,73.832 L146.682,78.088 C146.34,78.734 145.998,79 145.2,79 L141.02,79 C140.488,79 140.298,78.582 140.602,78.088 L153.712,52.552 C153.864,52.21 154.054,52.02 154.358,52.02 L154.586,52.02 C154.89,52.02 155.08,52.21 155.232,52.552 Z M154.51,61.634 L154.434,61.634 L150.672,69.12 L158.272,69.12 L154.51,61.634 Z M182.344,79.494 C176.15,79.494 171.02,75.618 171.02,68.056 L171.02,53.312 C171.02,52.59 171.21,52.4 171.932,52.4 L175.504,52.4 C176.188,52.4 176.416,52.59 176.416,53.312 L176.416,67.866 C176.416,72.502 178.506,74.592 182.344,74.592 C186.182,74.592 188.272,72.502 188.272,67.866 L188.272,53.312 C188.272,52.59 188.462,52.4 189.184,52.4 L192.756,52.4 C193.44,52.4 193.668,52.59 193.668,53.312 L193.668,68.056 C193.668,75.618 188.538,79.494 182.344,79.494 Z M204.364,69.044 L204.364,78.088 C204.364,78.772 204.174,79 203.452,79 L199.88,79 C199.196,79 198.968,78.772 198.968,78.088 L198.968,53.312 C198.968,52.59 199.196,52.4 199.88,52.4 L210.026,52.4 C214.434,52.4 219.526,54.566 219.526,60.722 C219.526,65.358 216.638,67.752 213.332,68.626 L219.45,77.822 C219.944,78.506 219.602,79 218.728,79 L215.042,79 C214.32,79 213.902,78.696 213.446,78.088 L207.442,69.044 L204.364,69.044 Z M204.364,64.256 L209.532,64.256 C212.838,64.256 214.054,62.888 214.054,60.684 C214.054,58.518 212.838,57.188 209.532,57.188 L204.364,57.188 L204.364,64.256 Z M236.036,52.552 L249.146,78.088 C249.412,78.582 249.26,79 248.728,79 L244.548,79 C243.75,79 243.408,78.734 243.066,78.088 L240.938,73.832 L229.614,73.832 L227.486,78.088 C227.144,78.734 226.802,79 226.004,79 L221.824,79 C221.292,79 221.102,78.582 221.406,78.088 L234.516,52.552 C234.668,52.21 234.858,52.02 235.162,52.02 L235.39,52.02 C235.694,52.02 235.884,52.21 236.036,52.552 Z M235.314,61.634 L235.238,61.634 L231.476,69.12 L239.076,69.12 L235.314,61.634 Z M247.796,52.4 L267.518,52.4 C268.24,52.4 268.43,52.59 268.43,53.312 L268.43,56.39 C268.43,57.112 268.24,57.302 267.518,57.302 L260.336,57.302 L260.336,78.088 C260.336,78.772 260.146,79 259.424,79 L255.852,79 C255.168,79 254.94,78.772 254.94,78.088 L254.94,57.302 L247.796,57.302 C247.074,57.302 246.884,57.112 246.884,56.39 L246.884,53.312 C246.884,52.59 247.074,52.4 247.796,52.4 Z M289.766,79 L272.438,79 C271.716,79 271.488,78.772 271.488,78.088 L271.488,53.312 C271.488,52.59 271.716,52.4 272.438,52.4 L289.576,52.4 C290.298,52.4 290.488,52.59 290.488,53.312 L290.488,56.276 C290.488,56.998 290.298,57.188 289.576,57.188 L276.884,57.188 L276.884,63.23 L288.93,63.23 C289.652,63.23 289.842,63.42 289.842,64.142 L289.842,67.106 C289.842,67.828 289.652,68.018 288.93,68.018 L276.884,68.018 L276.884,74.212 L289.766,74.212 C290.488,74.212 290.678,74.402 290.678,75.124 L290.678,78.088 C290.678,78.772 290.488,79 289.766,79 Z M306.466,79.494 C300.272,79.494 295.142,75.618 295.142,68.056 L295.142,53.312 C295.142,52.59 295.332,52.4 296.054,52.4 L299.626,52.4 C300.31,52.4 300.538,52.59 300.538,53.312 L300.538,67.866 C300.538,72.502 302.628,74.592 306.466,74.592 C310.304,74.592 312.394,72.502 312.394,67.866 L312.394,53.312 C312.394,52.59 312.584,52.4 313.306,52.4 L316.878,52.4 C317.562,52.4 317.79,52.59 317.79,53.312 L317.79,68.056 C317.79,75.618 312.66,79.494 306.466,79.494 Z M328.486,69.044 L328.486,78.088 C328.486,78.772 328.296,79 327.574,79 L324.002,79 C323.318,79 323.09,78.772 323.09,78.088 L323.09,53.312 C323.09,52.59 323.318,52.4 324.002,52.4 L334.148,52.4 C338.556,52.4 343.648,54.566 343.648,60.722 C343.648,65.358 340.76,67.752 337.454,68.626 L343.572,77.822 C344.066,78.506 343.724,79 342.85,79 L339.164,79 C338.442,79 338.024,78.696 337.568,78.088 L331.564,69.044 L328.486,69.044 Z M328.486,64.256 L333.654,64.256 C336.96,64.256 338.176,62.888 338.176,60.684 C338.176,58.518 336.96,57.188 333.654,57.188 L328.486,57.188 L328.486,64.256 Z M357.65,56.77 C354.8,56.77 352.976,57.834 352.976,60.114 C352.976,62.242 355.066,62.698 357.84,63.154 C362.172,63.876 367.834,64.56 367.834,71.286 C367.834,76.15 363.73,79.494 357.726,79.494 C353.622,79.494 349.936,78.43 347.238,76.454 C346.706,76.074 346.668,75.846 347.048,75.2 L348.606,72.502 C348.872,72.084 349.062,71.856 349.328,71.856 C349.48,71.856 349.632,71.932 349.86,72.084 C352.216,73.604 354.99,74.592 357.536,74.592 C360.804,74.592 362.362,73.414 362.362,71.552 C362.362,69.386 360.462,68.854 357.84,68.36 C353.432,67.562 347.504,66.954 347.504,60.304 C347.504,54.984 351.798,51.906 357.46,51.906 C361.032,51.906 363.312,52.552 366.618,54.566 C367.15,54.87 367.226,55.174 366.808,55.82 L365.288,58.404 C365.022,58.822 364.832,59.012 364.566,59.012 C364.414,59.012 364.262,58.936 364.034,58.822 C361.906,57.492 360.006,56.77 357.65,56.77 Z M129.704,102.61 L129.704,85.19 C129.704,84.904 129.808,84.8 130.094,84.8 L131.186,84.8 C131.498,84.8 131.576,84.904 131.576,85.19 L131.576,102.61 C131.576,102.896 131.498,103 131.186,103 L130.094,103 C129.808,103 129.704,102.896 129.704,102.61 Z M153.98,103.052 L141.838,88.96 L141.812,88.96 L141.812,102.61 C141.812,102.896 141.734,103 141.422,103 L140.33,103 C140.044,103 139.94,102.896 139.94,102.61 L139.94,84.748 C139.94,84.592 139.992,84.54 140.148,84.54 L140.304,84.54 C140.46,84.54 140.564,84.592 140.694,84.748 L152.836,98.84 L152.862,98.84 L152.862,85.19 C152.862,84.904 152.914,84.8 153.226,84.8 L154.344,84.8 C154.63,84.8 154.734,84.904 154.734,85.19 L154.734,103.052 C154.734,103.208 154.682,103.26 154.526,103.26 L154.37,103.26 C154.214,103.26 154.11,103.208 153.98,103.052 Z M163.462,84.8 L169.832,84.8 C175.032,84.8 178.854,88.622 178.854,93.9 C178.854,99.178 175.032,103 169.832,103 L163.462,103 C163.176,103 163.072,102.896 163.072,102.61 L163.072,85.19 C163.072,84.904 163.176,84.8 163.462,84.8 Z M169.806,86.594 L164.944,86.594 L164.944,101.206 L169.806,101.206 C174.044,101.206 176.956,98.008 176.956,93.9 C176.956,89.792 174.044,86.594 169.806,86.594 Z M197.93,103 L186.23,103 C185.944,103 185.84,102.896 185.84,102.61 L185.84,85.19 C185.84,84.904 185.944,84.8 186.23,84.8 L197.8,84.8 C198.086,84.8 198.164,84.904 198.164,85.19 L198.164,86.204 C198.164,86.49 198.086,86.594 197.8,86.594 L187.712,86.594 L187.712,92.886 L197.306,92.886 C197.592,92.886 197.67,92.99 197.67,93.276 L197.67,94.316 C197.67,94.628 197.592,94.68 197.306,94.68 L187.712,94.68 L187.712,101.206 L197.93,101.206 C198.216,101.206 198.294,101.31 198.294,101.596 L198.294,102.61 C198.294,102.896 198.216,103 197.93,103 Z M212.196,96.37 L207.594,96.37 L207.594,102.61 C207.594,102.896 207.516,103 207.204,103 L206.112,103 C205.826,103 205.722,102.896 205.722,102.61 L205.722,85.19 C205.722,84.904 205.826,84.8 206.112,84.8 L212.196,84.8 C215.394,84.8 218.488,86.334 218.488,90.546 C218.488,94.758 215.394,96.37 212.196,96.37 Z M207.594,94.576 L211.988,94.576 C215.706,94.576 216.616,92.548 216.616,90.546 C216.616,88.544 215.706,86.594 211.988,86.594 L207.594,86.594 L207.594,94.576 Z M237.512,103 L225.812,103 C225.526,103 225.422,102.896 225.422,102.61 L225.422,85.19 C225.422,84.904 225.526,84.8 225.812,84.8 L237.382,84.8 C237.668,84.8 237.746,84.904 237.746,85.19 L237.746,86.204 C237.746,86.49 237.668,86.594 237.382,86.594 L227.294,86.594 L227.294,92.886 L236.888,92.886 C237.174,92.886 237.252,92.99 237.252,93.276 L237.252,94.316 C237.252,94.628 237.174,94.68 236.888,94.68 L227.294,94.68 L227.294,101.206 L237.512,101.206 C237.798,101.206 237.876,101.31 237.876,101.596 L237.876,102.61 C237.876,102.896 237.798,103 237.512,103 Z M259.344,103.052 L247.202,88.96 L247.176,88.96 L247.176,102.61 C247.176,102.896 247.098,103 246.786,103 L245.694,103 C245.408,103 245.304,102.896 245.304,102.61 L245.304,84.748 C245.304,84.592 245.356,84.54 245.512,84.54 L245.668,84.54 C245.824,84.54 245.928,84.592 246.058,84.748 L258.2,98.84 L258.226,98.84 L258.226,85.19 C258.226,84.904 258.278,84.8 258.59,84.8 L259.708,84.8 C259.994,84.8 260.098,84.904 260.098,85.19 L260.098,103.052 C260.098,103.208 260.046,103.26 259.89,103.26 L259.734,103.26 C259.578,103.26 259.474,103.208 259.344,103.052 Z M268.826,84.8 L275.196,84.8 C280.396,84.8 284.218,88.622 284.218,93.9 C284.218,99.178 280.396,103 275.196,103 L268.826,103 C268.54,103 268.436,102.896 268.436,102.61 L268.436,85.19 C268.436,84.904 268.54,84.8 268.826,84.8 Z M275.17,86.594 L270.308,86.594 L270.308,101.206 L275.17,101.206 C279.408,101.206 282.32,98.008 282.32,93.9 C282.32,89.792 279.408,86.594 275.17,86.594 Z M298.068001,84.774 L306.440001,102.61 C306.544001,102.844 306.492001,103 306.258001,103 L304.906001,103 C304.620001,103 304.464001,102.922 304.334001,102.61 L302.358001,98.372 L293.050001,98.372 L291.074001,102.61 C290.944001,102.922 290.814001,103 290.502001,103 L289.150001,103 C288.916001,103 288.864001,102.844 288.968001,102.61 L297.340001,84.774 C297.418001,84.592 297.496001,84.54 297.626001,84.54 L297.782001,84.54 C297.912001,84.54 297.990001,84.592 298.068001,84.774 Z M297.730001,88.466 L297.704001,88.466 L293.934001,96.5 L301.474001,96.5 L297.730001,88.466 Z M326.712001,103.052 L314.570001,88.96 L314.544001,88.96 L314.544001,102.61 C314.544001,102.896 314.466001,103 314.154001,103 L313.062001,103 C312.776001,103 312.672001,102.896 312.672001,102.61 L312.672001,84.748 C312.672001,84.592 312.724001,84.54 312.880001,84.54 L313.036001,84.54 C313.192001,84.54 313.296001,84.592 313.426001,84.748 L325.568001,98.84 L325.594001,98.84 L325.594001,85.19 C325.594001,84.904 325.646001,84.8 325.958001,84.8 L327.076001,84.8 C327.362001,84.8 327.466001,84.904 327.466001,85.19 L327.466001,103.052 C327.466001,103.208 327.414001,103.26 327.258001,103.26 L327.102001,103.26 C326.946001,103.26 326.842001,103.208 326.712001,103.052 Z M333.984001,84.8 L347.504001,84.8 C347.790001,84.8 347.894001,84.904 347.894001,85.19 L347.894001,86.204 C347.894001,86.49 347.790001,86.594 347.504001,86.594 L341.680001,86.594 L341.680001,102.61 C341.680001,102.896 341.602001,103 341.290001,103 L340.198001,103 C339.912001,103 339.808001,102.896 339.808001,102.61 L339.808001,86.594 L333.984001,86.594 C333.724001,86.594 333.620001,86.49 333.620001,86.204 L333.620001,85.19 C333.620001,84.904 333.724001,84.8 333.984001,84.8 Z M359.950001,86.256 C357.220001,86.256 355.218001,87.4 355.218001,89.792 C355.218001,92.184 357.506001,92.444 360.132001,92.808 C363.226001,93.276 366.736001,93.874 366.736001,97.93 C366.736001,101.18 364.110001,103.338 360.054001,103.338 C357.480001,103.338 355.114001,102.662 353.164001,101.31 C352.930001,101.154 352.904001,101.05 353.086001,100.764 L353.684001,99.802 C353.840001,99.516 353.970001,99.464 354.230001,99.646 C356.050001,100.868 358.026001,101.544 359.950001,101.544 C362.966001,101.544 364.838001,100.14 364.838001,98.008 C364.838001,95.72 362.576001,95.226 360.132001,94.81 C356.908001,94.29 353.320001,94.03 353.320001,89.792 C353.320001,86.49 356.154001,84.462 359.872001,84.462 C362.238001,84.462 363.746001,84.878 365.956001,86.152 C366.138001,86.282 366.190001,86.412 366.034001,86.698 L365.488001,87.608 C365.332001,87.894 365.202001,87.894 364.968001,87.764 C363.122001,86.672 361.692001,86.256 359.950001,86.256 Z" id="Combined-Shape" fill="#FFFFFF"></path>
        <g id="RC-Logo-Circles" fill="#FFFFFF" opacity="0.62">
            <path d="M118.60855,23.9564885 C120.392061,26.0574046 120.089771,29.1709924 117.958626,30.9091603 C115.827481,32.6473282 112.653435,32.3752672 110.869924,30.2743511 C100.123511,17.6083969 84.2532824,10.1569466 67.1285496,10.1569466 C35.7054962,10.1569466 10.2224427,35.1412214 10.2224427,65.9748092 C10.2224427,96.8083969 35.7054962,121.792672 67.1285496,121.792672 C84.389313,121.792672 100.365344,114.220305 111.12687,101.388092 C112.895267,99.2871756 116.069313,98.969771 118.215573,100.707939 C120.361832,102.430992 120.679237,105.54458 118.91084,107.660611 C106.275115,122.76 87.4424427,131.677557 67.1436641,131.677557 C30.1584733,131.677557 0.17129771,102.264733 0.17129771,65.9899237 C0.17129771,29.7151145 30.1584733,0.302290076 67.1436641,0.302290076 C87.2761832,0.287175573 105.972824,9.06870229 118.60855,23.9564885 Z M98.9596947,37.3932824 C100.818779,39.418626 100.667634,42.5322137 98.6120611,44.3610687 C96.5564885,46.1899237 93.3673282,46.0387786 91.5082443,44.0134351 C85.2508397,37.2421374 76.3937405,33.2972519 66.9018321,33.2972519 C48.5528244,33.2972519 33.6801527,47.9129771 33.6801527,65.9445802 C33.6801527,83.9761832 48.5528244,98.5919084 66.9018321,98.5919084 C76.1972519,98.5919084 84.8578626,94.8283969 91.1152672,88.3140458 C93.0196947,86.3340458 96.208855,86.2282443 98.2341985,88.0873282 C100.259542,89.9464122 100.365344,93.0751145 98.460916,95.070229 C90.329313,103.56458 79.0236641,108.461679 66.9169466,108.461679 C43.0058015,108.461679 23.6290076,89.4174046 23.6290076,65.9445802 C23.6290076,42.4717557 42.9755725,23.4425954 66.8867176,23.4425954 C79.2503817,23.4425954 90.7978626,28.5815267 98.9596947,37.3932824 Z" id="CC-logo"></path>
        </g>
    </g>
</svg>
