<?xml version="1.0" encoding="UTF-8"?>
<svg width="250px" height="103px" viewBox="0 0 250 103" version="1.1" xmlns="http://www.w3.org/2000/svg" xmlns:xlink="http://www.w3.org/1999/xlink">
    <!-- Generator: Sketch 52.6 (67491) - http://www.bohemiancoding.com/sketch -->
    <title>ri-logo-trans-white</title>
    <desc>Created with Sketch.</desc>
    <g id="Brand-Assets-FR" stroke="none" stroke-width="1" fill="none" fill-rule="evenodd">
        <g id="RI-Logos" transform="translate(-44.000000, -266.000000)" fill="#FFFFFF" fill-rule="nonzero">
            <g id="ri-logo" transform="translate(44.000000, 266.000000)">
                <g id="rc-logo-circles" opacity="0.400385975">
                    <path d="M93.9219819,18.4859494 C95.3323489,20.1217158 95.1024209,22.5517928 93.4084233,23.9136784 C91.7144258,25.275564 89.1978411,25.0535398 87.7874741,23.4177734 C79.263217,13.5312024 66.678039,7.70793936 53.1001621,7.70793936 C28.18251,7.70793936 7.98233202,27.2189184 7.98233202,51.2874427 C7.98233202,75.3559669 28.18251,94.866946 53.1001621,94.866946 C66.7850776,94.866946 79.4593804,88.9507754 87.9817652,78.9302243 C89.3807195,77.2853452 91.8957026,77.0469999 93.5991373,78.3978651 C95.302572,79.7487303 95.5494021,82.1772609 94.1504478,83.82214 C84.1276507,95.6068637 69.1999514,102.574885 53.1001621,102.574885 C23.773515,102.574885 -1.05160325e-12,79.612486 -1.05160325e-12,51.2874427 C-1.05160325e-12,22.9623994 23.773515,0 53.1001621,0 C69.0739019,0 83.8969328,6.85873553 93.9219819,18.4859494 Z M78.3308855,28.9794545 C79.8109085,30.5567947 79.6864977,32.9940344 78.0530061,34.4231816 C76.4195145,35.8523288 73.8955123,35.7321946 72.4154893,34.1548543 C67.4491816,28.8619924 60.4363597,25.7919648 52.9042313,25.7919648 C38.3553758,25.7919648 26.558157,37.2050668 26.558157,51.2874565 C26.558157,65.3698462 38.3553758,76.7829482 52.9042313,76.7829482 C60.2724611,76.7829482 67.1460862,73.8461395 72.0972099,68.7533005 C73.6058673,67.201461 76.1316739,67.1244141 77.7387569,68.5812114 C79.3458398,70.0380086 79.4256295,72.4769906 77.9169721,74.0288301 C71.4726808,80.6575755 62.500782,84.4908876 52.9042313,84.4908876 C33.9434964,84.4908876 18.575825,69.6235867 18.575825,51.2874565 C18.575825,32.9513263 33.9434964,18.0840254 52.9042313,18.0840254 C62.7145438,18.0840254 71.8672947,22.0908573 78.3308855,28.9794545 Z" id="circles"></path>
                </g>
                <g id="fr.lbl" transform="translate(39.028638, 37.824099)">
                    <path d="M56.7589304,24.8808 L56.7589304,35.437065 L55.2868586,35.437065 L55.2868586,24.8808 L56.7589304,24.8808 Z M69.1181995,24.8808 L69.1181995,35.437065 L67.8178695,35.437065 L62.83736,28.6080738 L62.1503932,27.4090906 L62.1258587,27.4090906 L62.1258587,35.437065 L60.6537869,35.437065 L60.6537869,24.8808 L61.954117,24.8808 L66.9591609,31.7228236 L67.6215932,32.9087744 L67.6461278,32.9087744 L67.6461278,24.8808 L69.1181995,24.8808 Z M80.0667332,30.1589325 C80.0667332,28.0867767 79.6005772,26.3273992 76.7423045,26.3273992 L74.2765843,26.3273992 L74.4237915,26.4837884 L74.4237915,33.8340766 L74.2765843,33.9904657 L76.7913736,33.9904657 C79.6251117,33.9904657 80.0667332,32.2441206 80.0667332,30.1589325 Z M81.5756068,30.1589325 C81.5756068,32.6350934 80.8886399,35.437065 76.9140462,35.437065 L72.9517197,35.437065 L72.9517197,24.8808 L76.8649771,24.8808 C80.8763727,24.8808 81.5756068,27.6827715 81.5756068,30.1589325 Z M92.5854768,33.9904657 L92.5854768,35.437065 L84.9797727,35.437065 L84.9797727,24.8808 L92.5854768,24.8808 L92.5854768,26.3273992 L86.3046373,26.3273992 L86.4518445,26.4837884 L86.4518445,29.2727275 L86.3046373,29.4421491 L91.9966481,29.4421491 L91.9966481,30.8757159 L86.3046373,30.8757159 L86.4518445,31.032105 L86.4518445,33.8340766 L86.3046373,33.9904657 L92.5854768,33.9904657 Z M102.785707,28.1910362 C102.785707,27.0702475 102.196879,26.3273992 100.859747,26.3273992 L97.4985163,26.3273992 L97.6457235,26.4837884 L97.6457235,29.9113164 L97.4985163,30.0677055 L100.859747,30.0677055 C102.184611,30.0677055 102.785707,29.2857599 102.785707,28.1910362 Z M104.294581,28.1910362 C104.294581,30.0546731 103.055587,31.5143048 100.859747,31.5143048 L97.4985163,31.5143048 L97.6457235,31.6706939 L97.6457235,35.437065 L96.1736517,35.437065 L96.1736517,24.8808 L100.859747,24.8808 C103.055587,24.8808 104.294581,26.2622371 104.294581,28.1910362 Z M115.181778,33.9904657 L115.181778,35.437065 L107.576074,35.437065 L107.576074,24.8808 L115.181778,24.8808 L115.181778,26.3273992 L108.900939,26.3273992 L109.048146,26.4837884 L109.048146,29.2727275 L108.900939,29.4421491 L114.59295,29.4421491 L114.59295,30.8757159 L108.900939,30.8757159 L109.048146,31.032105 L109.048146,33.8340766 L108.900939,33.9904657 L115.181778,33.9904657 Z M127.234366,24.8808 L127.234366,35.437065 L125.934036,35.437065 L120.953526,28.6080738 L120.266559,27.4090906 L120.242025,27.4090906 L120.242025,35.437065 L118.769953,35.437065 L118.769953,24.8808 L120.070283,24.8808 L125.075327,31.7228236 L125.73776,32.9087744 L125.762294,32.9087744 L125.762294,24.8808 L127.234366,24.8808 Z M138.182899,30.1589325 C138.182899,28.0867767 137.716743,26.3273992 134.858471,26.3273992 L132.392751,26.3273992 L132.539958,26.4837884 L132.539958,33.8340766 L132.392751,33.9904657 L134.90754,33.9904657 C137.741278,33.9904657 138.182899,32.2441206 138.182899,30.1589325 Z M139.691773,30.1589325 C139.691773,32.6350934 139.004806,35.437065 135.030212,35.437065 L131.067886,35.437065 L131.067886,24.8808 L134.981143,24.8808 C138.992539,24.8808 139.691773,27.6827715 139.691773,30.1589325 Z M145.058701,31.397013 L148.996493,31.397013 L148.849286,31.2406238 L147.328145,27.6567067 L147.045998,26.6923072 L147.021464,26.6923072 L146.739317,27.6436743 L145.205909,31.2406238 L145.058701,31.397013 Z M147.745232,24.8808 L152.247318,35.437065 L150.640307,35.437065 L149.597589,32.9869689 L149.671193,32.8436122 L144.384002,32.8436122 L144.457605,32.9869689 L143.414888,35.437065 L141.807876,35.437065 L146.309962,24.8808 L147.745232,24.8808 Z M163.625206,24.8808 L163.625206,35.437065 L162.324876,35.437065 L157.344367,28.6080738 L156.6574,27.4090906 L156.632866,27.4090906 L156.632866,35.437065 L155.160794,35.437065 L155.160794,24.8808 L156.461124,24.8808 L161.466168,31.7228236 L162.1286,32.9087744 L162.153135,32.9087744 L162.153135,24.8808 L163.625206,24.8808 Z M175.064431,24.8808 L175.064431,26.3273992 L171.494657,26.3273992 L171.56826,26.4837884 L171.56826,35.437065 L170.096189,35.437065 L170.096189,26.4837884 L170.182059,26.3273992 L166.600018,26.3273992 L166.600018,24.8808 L175.064431,24.8808 Z M186.111102,32.5047692 C186.111102,34.0425954 184.95798,35.5673893 182.001569,35.5673893 C180.370023,35.5673893 178.689407,35.0330598 177.548552,33.7689145 L178.640338,32.6481258 C179.781194,33.7167848 180.725773,34.12079 181.9525,34.12079 C183.780322,34.12079 184.602229,33.4040066 184.602229,32.5829637 C184.602229,31.9965045 184.123806,31.3839805 182.786674,31.0190726 C182.57813,30.9539105 181.179662,30.5759701 180.958851,30.510808 C179.155563,29.9895109 177.830699,29.2987924 177.830699,27.6827715 C177.830699,26.1449453 179.131029,24.7504757 181.878896,24.7504757 C183.498175,24.7504757 184.872109,25.3499673 185.85349,26.4446911 L184.773971,27.5785121 C184.074737,26.7053396 183.142424,26.197075 181.878896,26.197075 C180.038807,26.197075 179.339572,26.9268908 179.339572,27.6306418 C179.339572,28.2822631 179.952936,28.6602035 181.633551,29.1424033 C181.842094,29.194533 183.007485,29.533376 183.240563,29.5985382 C185.240127,30.1328676 186.111102,31.214559 186.111102,32.5047692 Z M12.1494989,9.34464913 C12.1494989,7.9058693 11.207373,7.15520156 9.46051447,7.15520156 L4.78914011,7.15520156 L5.10318208,7.46797979 L5.10318208,11.1587628 L4.78914011,11.4923929 L9.26423824,11.4923929 C11.3055111,11.4923929 12.1494989,10.4497989 12.1494989,9.34464913 Z M14.4459308,15.1623241 L17.2723086,20.8757396 L13.5234325,20.8757396 L11.3447663,16.413437 C10.6970547,15.0997684 9.79418407,14.5159158 7.94918747,14.5159158 L4.78914011,14.5159158 L5.10318208,14.828694 L5.10318208,20.8757396 L1.7664861,20.8757396 L1.7664861,3.98571556 L9.46051447,3.98571556 C12.6205618,3.98571556 15.5450777,5.65386609 15.5450777,9.2612416 C15.5450777,11.0545034 14.2496546,12.6809502 12.8364657,13.3690623 L12.8364657,13.410766 C13.3664115,13.6609886 14.0141231,14.2865451 14.4459308,15.1623241 Z M31.7422283,17.7062536 L31.7422283,20.8757396 L18.5917207,20.8757396 L18.5917207,3.98571556 L31.7422283,3.98571556 L31.7422283,7.15520156 L21.6143747,7.15520156 L21.9284166,7.48883167 L21.9284166,10.5123545 L21.6143747,10.8459846 L30.8001024,10.8459846 L30.8001024,14.0154706 L21.6143747,14.0154706 L21.9284166,14.3491007 L21.9284166,17.3726235 L21.6143747,17.7062536 L31.7422283,17.7062536 Z M48.1749104,16.058955 C48.1749104,18.6654402 46.0158718,21.0842585 41.108966,21.0842585 C38.2825882,21.0842585 35.5543486,20.1459238 33.552331,18.1024394 L35.8683905,15.6419174 C37.4974833,17.2058085 39.3817351,17.9356243 41.2267317,17.9356243 C43.8372056,17.9356243 44.7793316,17.0598453 44.7793316,16.1215106 C44.7793316,15.5793617 44.3278962,14.7452865 42.2473681,14.2031375 C41.8940709,14.11973 39.6761495,13.5358773 39.3032246,13.4316179 C36.4768469,12.6600983 33.9448835,11.5340967 33.9448835,8.67738892 C33.9448835,5.98749619 36.3590811,3.77719675 40.9126898,3.77719675 C43.7586951,3.77719675 46.11401,4.79893894 47.8412408,6.67560829 L45.5055536,9.13613031 C44.4064067,7.80160989 42.7184311,6.92583086 40.8734345,6.92583086 C38.2825882,6.92583086 37.3404623,7.80160989 37.3404623,8.59398139 C37.3404623,9.30294537 38.0666844,9.74083488 40.637903,10.428947 C40.9912003,10.5332064 42.8361969,11.0336515 43.2091217,11.1170591 C46.52619,11.9719862 48.1749104,13.8069518 48.1749104,16.058955 Z M63.331797,3.98571556 L63.331797,7.15520156 L57.6594138,7.15520156 L57.8360624,7.48883167 L57.8360624,20.8757396 L54.4993665,20.8757396 L54.4993665,7.48883167 L54.6760151,7.15520156 L49.0036319,7.15520156 L49.0036319,3.98571556 L63.331797,3.98571556 Z M68.3412023,13.8903593 L73.3266186,13.8903593 L72.992949,13.5567292 L71.3442286,9.88679805 L70.853538,8.34375881 L70.8142828,8.36461069 L70.3235922,9.88679805 L68.6748718,13.5567292 L68.3412023,13.8903593 Z M72.3059822,3.98571556 L79.9411277,20.8757396 L76.2903897,20.8757396 L74.6220417,17.1641047 L74.818318,16.8513265 L66.8298753,16.8513265 L67.0261515,17.1641047 L65.3774311,20.8757396 L61.7070655,20.8757396 L69.3618387,3.98571556 L72.3059822,3.98571556 Z M95.7260982,3.98571556 L95.7260982,13.0979878 C95.7260982,18.1441432 93.3315281,21.0842585 88.2676013,21.0842585 C83.1840468,21.0842585 80.7698492,18.1858469 80.7698492,13.0979878 L80.7698492,3.98571556 L84.1065451,3.98571556 L84.1065451,13.0771359 C84.1065451,16.2674738 85.2056921,17.9147725 88.2479737,17.9147725 C91.2510001,17.9147725 92.3894022,16.2674738 92.3894022,13.0771359 L92.3894022,3.98571556 L95.7260982,3.98571556 Z M108.998733,9.34464913 C108.998733,7.9058693 108.056607,7.15520156 106.309749,7.15520156 L101.638374,7.15520156 L101.952416,7.46797979 L101.952416,11.1587628 L101.638374,11.4923929 L106.113472,11.4923929 C108.154745,11.4923929 108.998733,10.4497989 108.998733,9.34464913 Z M111.295165,15.1623241 L114.121543,20.8757396 L110.372667,20.8757396 L108.194,16.413437 C107.546289,15.0997684 106.643418,14.5159158 104.798422,14.5159158 L101.638374,14.5159158 L101.952416,14.828694 L101.952416,20.8757396 L98.6157201,20.8757396 L98.6157201,3.98571556 L106.309749,3.98571556 C109.469796,3.98571556 112.394312,5.65386609 112.394312,9.2612416 C112.394312,11.0545034 111.098889,12.6809502 109.6857,13.3690623 L109.6857,13.410766 C110.215646,13.6609886 110.863357,14.2865451 111.295165,15.1623241 Z M120.60302,13.8903593 L125.588436,13.8903593 L125.254766,13.5567292 L123.606046,9.88679805 L123.115355,8.34375881 L123.0761,8.36461069 L122.58541,9.88679805 L120.936689,13.5567292 L120.60302,13.8903593 Z M124.5678,3.98571556 L132.202945,20.8757396 L128.552207,20.8757396 L126.883859,17.1641047 L127.080135,16.8513265 L119.091693,16.8513265 L119.287969,17.1641047 L117.639249,20.8757396 L113.968883,20.8757396 L121.623656,3.98571556 L124.5678,3.98571556 Z M144.906379,3.98571556 L144.906379,7.15520156 L139.233996,7.15520156 L139.410644,7.48883167 L139.410644,20.8757396 L136.073948,20.8757396 L136.073948,7.48883167 L136.250597,7.15520156 L130.578214,7.15520156 L130.578214,3.98571556 L144.906379,3.98571556 Z M159.670713,17.7062536 L159.670713,20.8757396 L146.520205,20.8757396 L146.520205,3.98571556 L159.670713,3.98571556 L159.670713,7.15520156 L149.542859,7.15520156 L149.856901,7.48883167 L149.856901,10.5123545 L149.542859,10.8459846 L158.728587,10.8459846 L158.728587,14.0154706 L149.542859,14.0154706 L149.856901,14.3491007 L149.856901,17.3726235 L149.542859,17.7062536 L159.670713,17.7062536 Z M177.124031,3.98571556 L177.124031,13.0979878 C177.124031,18.1441432 174.729461,21.0842585 169.665534,21.0842585 C164.58198,21.0842585 162.167782,18.1858469 162.167782,13.0979878 L162.167782,3.98571556 L165.504478,3.98571556 L165.504478,13.0771359 C165.504478,16.2674738 166.603625,17.9147725 169.645907,17.9147725 C172.648933,17.9147725 173.787335,16.2674738 173.787335,13.0771359 L173.787335,3.98571556 L177.124031,3.98571556 Z M190.396666,9.34464913 C190.396666,7.9058693 189.45454,7.15520156 187.707682,7.15520156 L183.036307,7.15520156 L183.350349,7.46797979 L183.350349,11.1587628 L183.036307,11.4923929 L187.511405,11.4923929 C189.552678,11.4923929 190.396666,10.4497989 190.396666,9.34464913 Z M192.693098,15.1623241 L195.519476,20.8757396 L191.7706,20.8757396 L189.591933,16.413437 C188.944222,15.0997684 188.041351,14.5159158 186.196355,14.5159158 L183.036307,14.5159158 L183.350349,14.828694 L183.350349,20.8757396 L180.013653,20.8757396 L180.013653,3.98571556 L187.707682,3.98571556 C190.867729,3.98571556 193.792245,5.65386609 193.792245,9.2612416 C193.792245,11.0545034 192.496822,12.6809502 191.083633,13.3690623 L191.083633,13.410766 C191.613579,13.6609886 192.26129,14.2865451 192.693098,15.1623241 Z M210.676362,16.058955 C210.676362,18.6654402 208.517324,21.0842585 203.610418,21.0842585 C200.78404,21.0842585 198.0558,20.1459238 196.053783,18.1024394 L198.369842,15.6419174 C199.998935,17.2058085 201.883187,17.9356243 203.728184,17.9356243 C206.338658,17.9356243 207.280783,17.0598453 207.280783,16.1215106 C207.280783,15.5793617 206.829348,14.7452865 204.74882,14.2031375 C204.395523,14.11973 202.177601,13.5358773 201.804677,13.4316179 C198.978299,12.6600983 196.446335,11.5340967 196.446335,8.67738892 C196.446335,5.98749619 198.860533,3.77719675 203.414142,3.77719675 C206.260147,3.77719675 208.615462,4.79893894 210.342693,6.67560829 L208.007006,9.13613031 C206.907859,7.80160989 205.219883,6.92583086 203.374886,6.92583086 C200.78404,6.92583086 199.841914,7.80160989 199.841914,8.59398139 C199.841914,9.30294537 200.568136,9.74083488 203.139355,10.428947 C203.492652,10.5332064 205.337649,11.0336515 205.710574,11.1170591 C209.027642,11.9719862 210.676362,13.8069518 210.676362,16.058955 Z" id="Combined-Shape"></path>
                </g>
            </g>
        </g>
    </g>
</svg>