<svg xmlns="http://www.w3.org/2000/svg" viewBox="0 0 96 96">
  <g fill="none" fill-rule="evenodd">
    <path d="M0 0h96v96H0z"/>
    <path fill="#00A69B" d="M39.211 72.316h17.684v4.421H39.211zM39.211 63.474h17.684v4.421H39.211z" opacity=".501"/>
    <path fill="#575752" fill-rule="nonzero" d="M48.053 6c-2.034 0-4.112.177-6.19.619C29.661 8.962 19.935 18.82 17.636 31.023c-2.122 11.54 2.122 22.15 9.815 29.002 1.9 1.68 2.917 4.023 2.917 6.5v10.212c0 4.863 3.98 8.842 8.843 8.842h1.237C41.996 88.232 44.781 90 48.053 90a8.7 8.7 0 0 0 7.604-4.421h1.238c4.863 0 8.842-3.979 8.842-8.842V66.524c0-2.431.972-4.819 2.83-6.455C74.976 54.411 79 46.143 79 36.947 79 19.837 65.162 6 48.053 6Zm8.842 70.737H39.21v-4.421h17.684v4.42Zm0-8.842H39.21v-4.421h17.684v4.42Zm5.791-14.413c-.398.354-.707.796-1.06 1.15h-27.19c-.354-.398-.663-.84-1.061-1.194-5.836-5.217-8.444-12.998-7.03-20.78 1.592-8.576 8.666-15.694 17.198-17.374a22.277 22.277 0 0 1 4.51-.442c12.202 0 22.105 9.903 22.105 22.105a21.983 21.983 0 0 1-7.472 16.535Z"/>
    <g fill="#575752">
      <path d="M45.842 41.368h4.421v13.263h-4.421z"/>
      <path d="m37.762 35.094 3.127-3.126 9.378 9.379-3.126 3.126z"/>
      <path d="m48.973 44.517-3.126-3.126 9.378-9.378 3.126 3.126z"/>
    </g>
  </g>
</svg>
