<svg xmlns="http://www.w3.org/2000/svg" viewBox="0 0 96 96">
  <g fill="none" fill-rule="evenodd">
    <path d="M0 0h96v96H0z"/>
    <path fill="#00A69B" fill-rule="nonzero" d="M20.32 32h11.8c1.28-5 3.12-9.8 5.52-14.24A31.947 31.947 0 0 0 20.32 32ZM30 48c0-2.72.24-5.36.56-8H17.04C16.4 42.56 16 45.24 16 48s.4 5.44 1.04 8h13.52c-.32-2.64-.56-5.28-.56-8Zm-9.68 16a31.947 31.947 0 0 0 17.32 14.24C35.24 73.8 33.4 69 32.12 64h-11.8ZM48 16.16A56.347 56.347 0 0 0 40.36 32h15.28A56.347 56.347 0 0 0 48 16.16ZM75.68 32c-3.84-6.6-9.96-11.72-17.32-14.24C60.76 22.2 62.6 27 63.88 32h11.8ZM48 79.84c3.32-4.8 5.92-10.12 7.64-15.84H40.36A56.347 56.347 0 0 0 48 79.84Zm10.36-1.6C65.72 75.72 71.84 70.6 75.68 64h-11.8c-1.28 5-3.12 9.8-5.52 14.24ZM78.96 40H65.44c.32 2.64.56 5.28.56 8 0 2.72-.24 5.36-.56 8h13.52c.64-2.56 1.04-5.24 1.04-8s-.4-5.44-1.04-8Zm-40.32 0c-.36 2.6-.64 5.28-.64 8 0 2.72.28 5.36.64 8h18.72c.36-2.64.64-5.28.64-8 0-2.72-.28-5.4-.64-8H38.64Z" opacity=".497"/>
    <path fill="#575752" fill-rule="nonzero" d="M47.96 8C25.88 8 8 25.92 8 48s17.88 40 39.96 40C70.08 88 88 70.08 88 48S70.08 8 47.96 8Zm27.72 24h-11.8c-1.28-5-3.12-9.8-5.52-14.24C65.72 20.28 71.84 25.4 75.68 32ZM48 16.16c3.32 4.8 5.92 10.12 7.64 15.84H40.36A56.347 56.347 0 0 1 48 16.16ZM17.04 56C16.4 53.44 16 50.76 16 48s.4-5.44 1.04-8h13.52c-.32 2.64-.56 5.28-.56 8 0 2.72.24 5.36.56 8H17.04Zm3.28 8h11.8c1.28 5 3.12 9.8 5.52 14.24A31.947 31.947 0 0 1 20.32 64Zm11.8-32h-11.8a31.947 31.947 0 0 1 17.32-14.24C35.24 22.2 33.4 27 32.12 32ZM48 79.84A56.347 56.347 0 0 1 40.36 64h15.28A56.347 56.347 0 0 1 48 79.84ZM57.36 56H38.64c-.36-2.64-.64-5.28-.64-8 0-2.72.28-5.4.64-8h18.72c.36 2.6.64 5.28.64 8 0 2.72-.28 5.36-.64 8Zm1 22.24C60.76 73.8 62.6 69 63.88 64h11.8c-3.84 6.6-9.96 11.72-17.32 14.24ZM65.44 56c.32-2.64.56-5.28.56-8 0-2.72-.24-5.36-.56-8h13.52c.64 2.56 1.04 5.24 1.04 8s-.4 5.44-1.04 8H65.44Z"/>
  </g>
</svg>
