<svg xmlns="http://www.w3.org/2000/svg" viewBox="0 0 96 96">
  <g fill="none" fill-rule="evenodd">
    <path d="M0 0h96v96H0z"/>
    <g fill="#00A69B" transform="translate(16 24)">
      <circle cx="24" cy="8" r="8" opacity=".501"/>
      <path d="M24 40c0-1.36.12-2.68.32-3.96-.12-.04-.2-.04-.32-.04-7.88 0-15.6 2.12-22.36 6.16C.64 42.72 0 44 0 45.4V48h25.16C24.4 45.48 24 42.8 24 40Z" opacity=".508"/>
    </g>
    <path fill="#575752" fill-rule="nonzero" d="M16 72v-2.6c0-1.36.64-2.64 1.64-3.24A43.555 43.555 0 0 1 40 60c.12 0 .2 0 .32.04.4-2.8 1.2-5.48 2.36-7.92-.88-.08-1.76-.12-2.68-.12-9.68 0-18.72 2.68-26.44 7.28C10.04 61.36 8 65.28 8 69.4V80h37.04c-1.68-2.4-3-5.12-3.88-8H16Zm24-24c8.84 0 16-7.16 16-16s-7.16-16-16-16-16 7.16-16 16 7.16 16 16 16Zm0-24c4.4 0 8 3.6 8 8s-3.6 8-8 8-8-3.6-8-8 3.6-8 8-8ZM83.32 50.52l-5.8 1.96a14.586 14.586 0 0 0-4.32-2.52L72 44h-8l-1.2 5.96c-1.6.6-3.04 1.44-4.32 2.52l-5.8-1.96-4 6.92 4.56 4c-.12.84-.24 1.64-.24 2.52 0 .88.12 1.68.24 2.52l-4.56 4 4 6.92 5.8-1.96c1.28 1.08 2.72 1.92 4.32 2.52L64 84h8l1.2-5.96c1.6-.6 3.04-1.44 4.32-2.52l5.8 1.96 4-6.92-4.56-4c.12-.84.24-1.64.24-2.52 0-.88-.12-1.68-.24-2.52l4.56-4-4-7ZM68 72c-4.4 0-8-3.6-8-8s3.6-8 8-8 8 3.6 8 8-3.6 8-8 8Z"/>
  </g>
</svg>
