<svg xmlns="http://www.w3.org/2000/svg" viewBox="0 0 96 96">
  <g fill="none" fill-rule="evenodd">
    <path d="M0 0h96v96H0z"/>
    <path fill="#00A69B" d="M24 16v64h46.4L59 68.6c-3.32 2.2-7.16 3.32-11 3.32-5.12 0-10.2-1.96-14.12-5.84-7.8-7.8-7.8-20.44 0-28.2C37.8 33.96 42.88 32 48 32c5.12 0 10.2 1.96 14.12 5.84 6.84 6.84 7.68 17.36 2.56 25.12L72 70.32V36L52 16H24Z" opacity=".488"/>
    <path fill="#575752" fill-rule="nonzero" d="M56 8H24c-4.4 0-7.96 3.6-7.96 8L16 80c0 4.4 3.56 8 7.96 8H72c4.4 0 8-3.6 8-8V32L56 8Zm16 62.32-7.36-7.36c5.12-7.76 4.28-18.28-2.56-25.12A19.837 19.837 0 0 0 48 32c-5.12 0-10.2 1.96-14.12 5.84-7.8 7.8-7.8 20.44 0 28.2 3.88 3.88 9 5.84 14.12 5.84 3.84 0 7.68-1.12 11-3.32L70.4 80H24V16h28l20 20v34.32ZM59.96 51.96c0 3.2-1.24 6.2-3.52 8.44-2.24 2.24-5.24 3.52-8.44 3.52-3.2 0-6.2-1.24-8.44-3.52-2.24-2.24-3.52-5.24-3.52-8.44 0-3.2 1.24-6.2 3.52-8.44C41.84 41.28 44.8 40 48 40c3.2 0 6.2 1.24 8.44 3.52 2.28 2.24 3.52 5.24 3.52 8.44Z"/>
  </g>
</svg>
