<svg width="96px" height="96px" viewBox="0 0 96 96"  xmlns="http://www.w3.org/2000/svg">
    <g id="app-icon-forum" stroke="none" stroke-width="1" fill="none">
        <g>
            <polygon points="0 0 96 0 96 96 0 96"></polygon>
            <polygon fill="#00A69B" opacity="0.382162766" points="60 44 60 16 16 16 16 48.68 20.68 44 24 44"></polygon>
            <path d="M64,52 C66.2,52 68,50.2 68,48 L68,12 C68,9.8 66.2,8 64,8 L12,8 C9.8,8 8,9.8 8,12 L8,68 L24,52 L64,52 Z M16,48.68 L16,16 L60,16 L60,44 L20.68,44 L16,48.68 Z M88,28 C88,25.8 86.2,24 84,24 L76,24 L76,60 L24,60 L24,68 C24,70.2 25.8,72 28,72 L72,72 L88,88 L88,28 Z" id="Shape" fill="#575752" fill-rule="nonzero"></path>
        </g>
    </g>
</svg>
