<svg xmlns="http://www.w3.org/2000/svg" viewBox="0 0 96 96">
  <g fill="none" fill-rule="evenodd">
    <path d="M0 0h96v96H0z"/>
    <path fill="#00A69B" fill-rule="nonzero" d="M44 16H16v28l36 36.04L80 52 44 16ZM26 32c-3.32 0-6-2.68-6-6s2.68-6 6-6 6 2.68 6 6-2.68 6-6 6Z" opacity=".5"/>
    <path fill="#575752" fill-rule="nonzero" d="M49.64 10.32A7.95 7.95 0 0 0 44 8H16c-4.4 0-8 3.6-8 8v28c0 2.2.88 4.2 2.36 5.68l36 36A7.95 7.95 0 0 0 52 88c2.2 0 4.2-.88 5.64-2.36l28-28A7.821 7.821 0 0 0 88 52c0-2.2-.92-4.24-2.36-5.68l-36-36ZM52 80.04 16 44V16h28v-.04l36 36-28 28.08Z"/>
    <circle cx="26" cy="26" r="6" fill="#575752"/>
  </g>
</svg>
