<svg xmlns="http://www.w3.org/2000/svg" viewBox="0 0 96 96">
  <g fill="none" fill-rule="evenodd">
    <path d="M0 0h96v96H0z"/>
    <path fill="#00A69B" fill-rule="nonzero" d="M46 12c-16.56 0-30 13.44-30 30 0 16.56 13.44 30 30 30h6v9.2C66.56 72 76 56.88 76 42c0-16.56-13.44-30-30-30Zm4 54h-8v-8h8v8Zm0-14h-8c0-13 12-12 12-20 0-4.4-3.6-8-8-8s-8 3.6-8 8h-8c0-8.84 7.16-16 16-16s16 7.16 16 16c0 10-12 11-12 20Z" opacity=".503"/>
    <path fill="#575752" fill-rule="nonzero" d="M46 4C25.04 4 8 21.04 8 42c0 20.28 15.96 36.92 36 37.96v14.4l5.72-2.76C70.24 81.72 84 61.8 84 42 84 21.04 66.96 4 46 4Zm6 77.2V72h-6c-16.56 0-30-13.44-30-30 0-16.56 13.44-30 30-30 16.56 0 30 13.44 30 30 0 14.92-9.44 30.04-24 39.2ZM42 58h8v8h-8v-8Zm4-42c-8.84 0-16 7.16-16 16h8c0-4.4 3.6-8 8-8s8 3.6 8 8c0 8-12 7-12 20h8c0-9 12-10 12-20 0-8.84-7.16-16-16-16Z"/>
  </g>
</svg>
