<?xml version="1.0" encoding="UTF-8"?>
<svg width="96px" height="96px" viewBox="0 0 96 96" version="1.1" xmlns="http://www.w3.org/2000/svg" xmlns:xlink="http://www.w3.org/1999/xlink">
    <!-- Generator: Sketch 52.6 (67491) - http://www.bohemiancoding.com/sketch -->
    <title>app-icon-deals</title>
    <desc>Created with Sketch.</desc>
    <g id="app-icon-deals" stroke="none" stroke-width="1" fill="none" fill-rule="evenodd">
        <g id="local_offer-24px">
            <polygon id="Path" points="0 0 96 0 96 96 0 96"></polygon>
            <path d="M44,16 L16,16 L16,44 L52,80.04 L80,52 L44,16 Z M26,32 C22.68,32 20,29.32 20,26 C20,22.68 22.68,20 26,20 C29.32,20 32,22.68 32,26 C32,29.32 29.32,32 26,32 Z" id="Shape" fill="#00A69B" fill-rule="nonzero" opacity="0.500327555"></path>
            <path d="M49.64,10.32 C48.2,8.88 46.2,8 44,8 L16,8 C11.6,8 8,11.6 8,16 L8,44 C8,46.2 8.88,48.2 10.36,49.68 L46.36,85.68 C47.8,87.12 49.8,88 52,88 C54.2,88 56.2,87.12 57.64,85.64 L85.64,57.64 C87.12,56.2 88,54.2 88,52 C88,49.8 87.08,47.76 85.64,46.32 L49.64,10.32 Z M52,80.04 L16,44 L16,16 L44,16 L44,15.96 L80,51.96 L52,80.04 Z" id="Shape" fill="#575752" fill-rule="nonzero"></path>
            <circle id="Oval" fill="#575752" cx="26" cy="26" r="6"></circle>
        </g>
    </g>
</svg>