<svg xmlns="http://www.w3.org/2000/svg" viewBox="0 0 96 96">
  <g fill="none" fill-rule="evenodd">
    <path d="M0 0h96v96H0z"/>
    <path fill="#00A69B" fill-rule="nonzero" d="M74.6 77.4 66 68.8V56h4v11.16l7.4 7.4-2.8 2.84ZM68 40c1.36 0 2.68.12 4 .32V20h-8v12H32V20h-8v60h18.72C41 76.36 40 72.32 40 68c0-15.48 12.52-28 28-28ZM48 20c-2.2 0-4-1.8-4-4s1.8-4 4-4 4 1.8 4 4-1.8 4-4 4Z" opacity=".497"/>
    <path fill="#575752" fill-rule="nonzero" d="M68 48c-11.04 0-20 8.96-20 20s8.96 20 20 20 20-8.96 20-20-8.96-20-20-20Zm6.6 29.4L66 68.8V56h4v11.16l7.4 7.4-2.8 2.84ZM72 12H59.28C57.6 7.36 53.2 4 48 4c-5.2 0-9.6 3.36-11.28 8H24c-4.4 0-8 3.6-8 8v60c0 4.4 3.6 8 8 8h24.44c-2.36-2.28-4.28-5-5.68-8H24V20h8v12h32V20h8v20.32c2.84.4 5.52 1.24 8 2.4V20c0-4.4-3.6-8-8-8Zm-24 8c-2.2 0-4-1.8-4-4s1.8-4 4-4 4 1.8 4 4-1.8 4-4 4Z"/>
  </g>
</svg>
