<?xml version="1.0" encoding="UTF-8"?>
<svg width="96px" height="96px" viewBox="0 0 96 96" version="1.1" xmlns="http://www.w3.org/2000/svg" xmlns:xlink="http://www.w3.org/1999/xlink">
    <!-- Generator: Sketch 52.6 (67491) - http://www.bohemiancoding.com/sketch -->
    <title>app-icon-market copy 2@1x</title>
    <desc>Created with Sketch.</desc>
    <g id="app-icon-market-copy-2" stroke="none" stroke-width="1" fill="none" fill-rule="evenodd">
        <g id="pending_actions-24px">
            <rect id="Rectangle" x="0" y="0" width="96" height="96"></rect>
            <path d="M74.6,77.4 L66,68.8 L66,56 L70,56 L70,67.16 L77.4,74.56 L74.6,77.4 Z M68,40 C69.36,40 70.68,40.12 72,40.32 L72,20 L64,20 L64,32 L32,32 L32,20 L24,20 L24,80 L42.72,80 C41,76.36 40,72.32 40,68 C40,52.52 52.52,40 68,40 Z M48,20 C45.8,20 44,18.2 44,16 C44,13.8 45.8,12 48,12 C50.2,12 52,13.8 52,16 C52,18.2 50.2,20 48,20 Z" id="Shape" fill="#00A69B" fill-rule="nonzero" opacity="0.497346279"></path>
            <path d="M68,48 C56.96,48 48,56.96 48,68 C48,79.04 56.96,88 68,88 C79.04,88 88,79.04 88,68 C88,56.96 79.04,48 68,48 Z M74.6,77.4 L66,68.8 L66,56 L70,56 L70,67.16 L77.4,74.56 L74.6,77.4 Z M72,12 L59.28,12 C57.6,7.36 53.2,4 48,4 C42.8,4 38.4,7.36 36.72,12 L24,12 C19.6,12 16,15.6 16,20 L16,80 C16,84.4 19.6,88 24,88 L48.44,88 C46.08,85.72 44.16,83 42.76,80 L24,80 L24,20 L32,20 L32,32 L64,32 L64,20 L72,20 L72,40.32 C74.84,40.72 77.52,41.56 80,42.72 L80,20 C80,15.6 76.4,12 72,12 Z M48,20 C45.8,20 44,18.2 44,16 C44,13.8 45.8,12 48,12 C50.2,12 52,13.8 52,16 C52,18.2 50.2,20 48,20 Z" id="Shape" fill="#575752" fill-rule="nonzero"></path>
        </g>
    </g>
</svg>