<?xml version="1.0" encoding="UTF-8"?>
<svg width="96px" height="96px" viewBox="0 0 96 96" version="1.1" xmlns="http://www.w3.org/2000/svg" xmlns:xlink="http://www.w3.org/1999/xlink">
    <!-- Generator: Sketch 52.6 (67491) - http://www.bohemiancoding.com/sketch -->
    <title>app-icon-market copy@1x</title>
    <desc>Created with Sketch.</desc>
    <g id="app-icon-market-copy" stroke="none" stroke-width="1" fill="none" fill-rule="evenodd">
        <g id="emoji_objects-24px">
            <rect id="Rectangle" x="0" y="0" width="96" height="96"></rect>
            <g id="Group" transform="translate(16.000000, 6.000000)">
                <g>
                    <rect id="Rectangle" fill="#00A69B" opacity="0.500844901" x="23.2105263" y="66.3157895" width="17.6842105" height="4.42105263"></rect>
                    <rect id="Rectangle" fill="#00A69B" opacity="0.500844901" x="23.2105263" y="57.4736842" width="17.6842105" height="4.42105263"></rect>
                    <path d="M32.0526316,0 C30.0189474,0 27.9410526,0.176842105 25.8631579,0.618947368 C13.6610526,2.96210526 3.93473684,12.8210526 1.63578947,25.0231579 C-0.486315789,36.5621053 3.75789474,47.1726316 11.4505263,54.0252632 C13.3515789,55.7052632 14.3684211,58.0484211 14.3684211,60.5242105 L14.3684211,70.7368421 C14.3684211,75.6 18.3473684,79.5789474 23.2105263,79.5789474 L24.4484211,79.5789474 C25.9957895,82.2315789 28.7810526,84 32.0526316,84 C35.3242105,84 38.1536842,82.2315789 39.6568421,79.5789474 L40.8947368,79.5789474 C45.7578947,79.5789474 49.7368421,75.6 49.7368421,70.7368421 L49.7368421,60.5242105 C49.7368421,58.0926316 50.7094737,55.7052632 52.5663158,54.0694737 C58.9768421,48.4105263 63,40.1431579 63,30.9473684 C63,13.8378947 49.1621053,0 32.0526316,0 Z M40.8947368,70.7368421 L23.2105263,70.7368421 L23.2105263,66.3157895 L40.8947368,66.3157895 L40.8947368,70.7368421 Z M40.8947368,61.8947368 L23.2105263,61.8947368 L23.2105263,57.4736842 L40.8947368,57.4736842 L40.8947368,61.8947368 Z M46.6863158,47.4821053 C46.2884211,47.8357895 45.9789474,48.2778947 45.6252632,48.6315789 L18.4357895,48.6315789 C18.0821053,48.2336842 17.7726316,47.7915789 17.3747368,47.4378947 C11.5389474,42.2210526 8.93052632,34.44 10.3452632,26.6589474 C11.9368421,18.0821053 19.0105263,10.9642105 27.5431579,9.28421053 C29.0463158,8.97473684 30.5494737,8.84210526 32.0526316,8.84210526 C44.2547368,8.84210526 54.1578947,18.7452632 54.1578947,30.9473684 C54.1578947,37.2694737 51.4610526,43.2821053 46.6863158,47.4821053 Z" id="Shape" fill="#575752" fill-rule="nonzero"></path>
                </g>
                <g transform="translate(21.000000, 25.421053)" fill="#575752" id="Rectangle">
                    <rect x="8.84210526" y="9.94736842" width="4.42105263" height="13.2631579"></rect>
                    <polygon transform="translate(7.014433, 6.799225) rotate(-45.000000) translate(-7.014433, -6.799225) " points="4.80392815 0.167709913 9.22493838 0.167709913 9.22493838 13.4307406 4.80392815 13.4307406"></polygon>
                    <polygon transform="translate(15.098770, 6.844143) rotate(-135.000000) translate(-15.098770, -6.844143) " points="12.888265 0.212627808 17.3092752 0.212627808 17.3092752 13.4756585 12.888265 13.4756585"></polygon>
                </g>
            </g>
        </g>
    </g>
</svg>