<?xml version="1.0" encoding="UTF-8"?>
<svg width="96px" height="96px" viewBox="0 0 96 96" version="1.1" xmlns="http://www.w3.org/2000/svg" xmlns:xlink="http://www.w3.org/1999/xlink">
    <!-- Generator: Sketch 52.6 (67491) - http://www.bohemiancoding.com/sketch -->
    <title>app-icon-forum copy</title>
    <desc>Created with Sketch.</desc>
    <g id="app-icon-forum-copy" stroke="none" stroke-width="1" fill="none" fill-rule="evenodd">
        <g id="volunteer_activism-24px">
            <rect id="Rectangle" x="0" y="0" width="96" height="96"></rect>
            <g id="Group" transform="translate(6.000000, 8.000000)">
                <rect id="Rectangle" fill="#00A69B" opacity="0.499417841" x="8" y="44" width="8" height="28"></rect>
                <path d="M60,33.16 C67.84,25.88 76,17.64 76,13.2 C76,10.24 73.76,8 70.8,8 C69.04,8 67.24,8.84 66.08,10.2 L60,17.36 L53.92,10.2 C52.76,8.84 50.96,8 49.2,8 C46.24,8 44,10.24 44,13.2 C44,17.64 52.16,25.88 60,33.16 Z" id="Path" fill="#00A69B" opacity="0.499417841"></path>
                <path d="M72,64 L50.6,64 C48.44,64 46.32,63.64 44.28,62.96 L34.76,59.8 L37.28,52.2 L46.8,55.36 C48.04,55.76 49.32,55.96 50.6,55.96 L56,55.96 C56,54.48 55.08,53.16 53.72,52.64 L30.44,44 L24,44 L24,65.92 L51.88,73.68 L75.6,66.28 C74.96,64.92 73.56,64 72,64 Z" id="Path" fill="#00A69B" opacity="0.499417841"></path>
                <path d="M60,44 C72.36,32.76 84,22.24 84,13.2 C84,5.8 78.2,0 70.8,0 C66.64,0 62.6,1.96 60,5 C57.4,1.96 53.36,0 49.2,0 C41.8,0 36,5.8 36,13.2 C36,22.24 47.64,32.76 60,44 Z M49.2,8 C50.96,8 52.76,8.84 53.92,10.2 L60,17.36 L66.08,10.2 C67.24,8.84 69.04,8 70.8,8 C73.76,8 76,10.24 76,13.2 C76,17.68 67.84,25.88 60,33.16 C52.16,25.88 44,17.64 44,13.2 C44,10.24 46.24,8 49.2,8 Z" id="Shape" fill="#575752" fill-rule="nonzero"></path>
                <path d="M72,56 L64,56 C64,51.2 61,46.88 56.52,45.2 L31.88,36 L0,36 L0,80 L24,80 L24,74.24 L52,82 L84,72 L84,68 C84,61.36 78.64,56 72,56 Z M16,72 L8,72 L8,44 L16,44 L16,72 Z M51.88,73.64 L24,65.92 L24,44 L30.44,44 L53.72,52.68 C55.08,53.2 56,54.52 56,56 L50.6,56 C49.32,56 48.04,55.8 46.8,55.4 L37.28,52.24 L34.76,59.84 L44.28,63 C46.32,63.68 48.44,64.04 50.6,64.04 L72,64.04 C73.56,64.04 74.96,64.96 75.6,66.28 L51.88,73.64 Z" id="Shape" fill="#575752" fill-rule="nonzero"></path>
            </g>
        </g>
    </g>
</svg>