<?xml version="1.0" encoding="UTF-8"?>
<svg width="96px" height="96px" viewBox="0 0 96 96" version="1.1" xmlns="http://www.w3.org/2000/svg" xmlns:xlink="http://www.w3.org/1999/xlink">
    <!-- Generator: Sketch 52.6 (67491) - http://www.bohemiancoding.com/sketch -->
    <title>app-icon-profile</title>
    <desc>Created with Sketch.</desc>
    <g id="app-icon-profile" stroke="none" stroke-width="1" fill="none" fill-rule="evenodd">
        <g id="manage_accounts-24px">
            <polygon id="Path" points="0 0 96 0 96 96 0 96"></polygon>
            <g id="Group" transform="translate(8.000000, 16.000000)">
                <g transform="translate(8.000000, 8.000000)" fill="#00A69B">
                    <circle id="Oval" opacity="0.500789824" cx="24" cy="8" r="8"></circle>
                    <path d="M24,40 C24,38.64 24.12,37.32 24.32,36.04 C24.2,36 24.12,36 24,36 C16.12,36 8.4,38.12 1.64,42.16 C0.64,42.72 0,44 0,45.4 L0,48 L25.16,48 C24.4,45.48 24,42.8 24,40 Z" id="Path" opacity="0.508094424"></path>
                </g>
                <path d="M8,56 L8,53.4 C8,52.04 8.64,50.76 9.64,50.16 C16.4,46.12 24.12,44 32,44 C32.12,44 32.2,44 32.32,44.04 C32.72,41.24 33.52,38.56 34.68,36.12 C33.8,36.04 32.92,36 32,36 C22.32,36 13.28,38.68 5.56,43.28 C2.04,45.36 0,49.28 0,53.4 L0,64 L37.04,64 C35.36,61.6 34.04,58.88 33.16,56 L8,56 Z M32,32 C40.84,32 48,24.84 48,16 C48,7.16 40.84,0 32,0 C23.16,0 16,7.16 16,16 C16,24.84 23.16,32 32,32 Z M32,8 C36.4,8 40,11.6 40,16 C40,20.4 36.4,24 32,24 C27.6,24 24,20.4 24,16 C24,11.6 27.6,8 32,8 Z" id="Shape" fill="#575752" fill-rule="nonzero"></path>
                <path d="M75.32,34.52 L69.52,36.48 C68.24,35.4 66.8,34.56 65.2,33.96 L64,28 L56,28 L54.8,33.96 C53.2,34.56 51.76,35.4 50.48,36.48 L44.68,34.52 L40.68,41.44 L45.24,45.44 C45.12,46.28 45,47.08 45,47.96 C45,48.84 45.12,49.64 45.24,50.48 L40.68,54.48 L44.68,61.4 L50.48,59.44 C51.76,60.52 53.2,61.36 54.8,61.96 L56,68 L64,68 L65.2,62.04 C66.8,61.44 68.24,60.6 69.52,59.52 L75.32,61.48 L79.32,54.56 L74.76,50.56 C74.88,49.72 75,48.92 75,48.04 C75,47.16 74.88,46.36 74.76,45.52 L79.32,41.52 L75.32,34.52 Z M60,56 C55.6,56 52,52.4 52,48 C52,43.6 55.6,40 60,40 C64.4,40 68,43.6 68,48 C68,52.4 64.4,56 60,56 Z" id="Shape" fill="#575752" fill-rule="nonzero"></path>
            </g>
        </g>
    </g>
</svg>