<svg xmlns="http://www.w3.org/2000/svg" viewBox="0 0 96 96">
  <g fill="none" fill-rule="evenodd">
    <path d="M0 0h96v96H0z"/>
    <path fill="#00A69B" d="M14 52h8v28h-8zM66 41.16c7.84-7.28 16-15.52 16-19.96 0-2.96-2.24-5.2-5.2-5.2-1.76 0-3.56.84-4.72 2.2L66 25.36l-6.08-7.16c-1.16-1.36-2.96-2.2-4.72-2.2-2.96 0-5.2 2.24-5.2 5.2 0 4.44 8.16 12.68 16 19.96ZM78 72H56.6c-2.16 0-4.28-.36-6.32-1.04l-9.52-3.16 2.52-7.6 9.52 3.16c1.24.4 2.52.6 3.8.6H62c0-1.48-.92-2.8-2.28-3.32L36.44 52H30v21.92l27.88 7.76 23.72-7.4A3.996 3.996 0 0 0 78 72Z" opacity=".499"/>
    <path fill="#575752" fill-rule="nonzero" d="M66 52c12.36-11.24 24-21.76 24-30.8C90 13.8 84.2 8 76.8 8c-4.16 0-8.2 1.96-10.8 5-2.6-3.04-6.64-5-10.8-5C47.8 8 42 13.8 42 21.2c0 9.04 11.64 19.56 24 30.8ZM55.2 16c1.76 0 3.56.84 4.72 2.2L66 25.36l6.08-7.16c1.16-1.36 2.96-2.2 4.72-2.2 2.96 0 5.2 2.24 5.2 5.2 0 4.48-8.16 12.68-16 19.96-7.84-7.28-16-15.52-16-19.96 0-2.96 2.24-5.2 5.2-5.2ZM78 64h-8c0-4.8-3-9.12-7.48-10.8L37.88 44H6v44h24v-5.76L58 90l32-10v-4c0-6.64-5.36-12-12-12ZM22 80h-8V52h8v28Zm35.88 1.64L30 73.92V52h6.44l23.28 8.68A3.56 3.56 0 0 1 62 64h-5.4c-1.28 0-2.56-.2-3.8-.6l-9.52-3.16-2.52 7.6L50.28 71c2.04.68 4.16 1.04 6.32 1.04H78c1.56 0 2.96.92 3.6 2.24l-23.72 7.36Z"/>
  </g>
</svg>
