<?xml version="1.0" encoding="UTF-8"?>
<svg width="96px" height="96px" viewBox="0 0 96 96" version="1.1" xmlns="http://www.w3.org/2000/svg" xmlns:xlink="http://www.w3.org/1999/xlink">
    <!-- Generator: Sketch 52.6 (67491) - http://www.bohemiancoding.com/sketch -->
    <title>app-icon-jobs</title>
    <desc>Created with Sketch.</desc>
    <g id="app-icon-jobs" stroke="none" stroke-width="1" fill="none" fill-rule="evenodd">
        <g id="find_in_page-24px">
            <polygon id="Path" points="0 0 96 0 96 96 0 96"></polygon>
            <path d="M24,16 L24,80 L70.4,80 L59,68.6 C55.68,70.8 51.84,71.92 48,71.92 C42.88,71.92 37.8,69.96 33.88,66.08 C26.08,58.28 26.08,45.64 33.88,37.88 C37.8,33.96 42.88,32 48,32 C53.12,32 58.2,33.96 62.12,37.84 C68.96,44.68 69.8,55.2 64.68,62.96 L72,70.32 L72,36 L52,16 L24,16 Z" id="Path" fill="#00A69B" opacity="0.488497634"></path>
            <path d="M56,8 L24,8 C19.6,8 16.04,11.6 16.04,16 L16,80 C16,84.4 19.56,88 23.96,88 L72,88 C76.4,88 80,84.4 80,80 L80,32 L56,8 Z M72,70.32 L64.64,62.96 C69.76,55.2 68.92,44.68 62.08,37.84 C58.2,33.96 53.12,32 48,32 C42.88,32 37.8,33.96 33.88,37.84 C26.08,45.64 26.08,58.28 33.88,66.04 C37.76,69.92 42.88,71.88 48,71.88 C51.84,71.88 55.68,70.76 59,68.56 L70.4,80 L24,80 L24,16 L52,16 L72,36 L72,70.32 Z M59.96,51.96 C59.96,55.16 58.72,58.16 56.44,60.4 C54.2,62.64 51.2,63.92 48,63.92 C44.8,63.92 41.8,62.68 39.56,60.4 C37.32,58.16 36.04,55.16 36.04,51.96 C36.04,48.76 37.28,45.76 39.56,43.52 C41.84,41.28 44.8,40 48,40 C51.2,40 54.2,41.24 56.44,43.52 C58.72,45.76 59.96,48.76 59.96,51.96 Z" id="Shape" fill="#575752" fill-rule="nonzero"></path>
        </g>
    </g>
</svg>