<svg xmlns="http://www.w3.org/2000/svg" viewBox="0 0 96 96">
  <g fill="none" fill-rule="evenodd">
    <path d="M0 0h96v96H0z"/>
    <path fill="#00A69B" fill-rule="nonzero" d="M48.28 24.04c-15.48 0-28 12.52-28 28s12.52 28 28 28 28-12.52 28-28-12.52-28-28-28Zm4 32h-8v-24h8v24Z" opacity=".502"/>
    <path fill="#575752" fill-rule="nonzero" d="M36.28 4.04h24v8h-24v-8Zm8 28h8v24h-8v-24Zm32.12-2.48 5.68-5.68c-1.72-2.04-3.6-3.96-5.64-5.64l-5.68 5.68c-6.2-4.96-14-7.92-22.48-7.92-19.88 0-36 16.12-36 36s16.08 36 36 36 36-16.12 36-36c0-8.44-2.96-16.28-7.88-22.44ZM48.28 80.04c-15.48 0-28-12.52-28-28s12.52-28 28-28 28 12.52 28 28-12.52 28-28 28Z"/>
  </g>
</svg>
