<?xml version="1.0" encoding="UTF-8"?>
<svg width="96px" height="96px" viewBox="0 0 96 96" version="1.1" xmlns="http://www.w3.org/2000/svg" xmlns:xlink="http://www.w3.org/1999/xlink">
    <!-- Generator: Sketch 52.6 (67491) - http://www.bohemiancoding.com/sketch -->
    <title>app-icon-profile copy</title>
    <desc>Created with Sketch.</desc>
    <g id="app-icon-profile-copy" stroke="none" stroke-width="1" fill="none" fill-rule="evenodd">
        <g id="language-24px">
            <polygon id="Path" points="0 0 96 0 96 96 0 96"></polygon>
            <path d="M20.32,32 L32.12,32 C33.4,27 35.24,22.2 37.64,17.76 C30.28,20.28 24.16,25.36 20.32,32 Z M30,48 C30,45.28 30.24,42.64 30.56,40 L17.04,40 C16.4,42.56 16,45.24 16,48 C16,50.76 16.4,53.44 17.04,56 L30.56,56 C30.24,53.36 30,50.72 30,48 Z M20.32,64 C24.16,70.64 30.28,75.72 37.64,78.24 C35.24,73.8 33.4,69 32.12,64 L20.32,64 Z M48,16.16 C44.68,20.96 42.08,26.28 40.36,32 L55.64,32 C53.92,26.28 51.32,20.96 48,16.16 Z M75.68,32 C71.84,25.4 65.72,20.28 58.36,17.76 C60.76,22.2 62.6,27 63.88,32 L75.68,32 Z M48,79.84 C51.32,75.04 53.92,69.72 55.64,64 L40.36,64 C42.08,69.72 44.68,75.04 48,79.84 Z M58.36,78.24 C65.72,75.72 71.84,70.6 75.68,64 L63.88,64 C62.6,69 60.76,73.8 58.36,78.24 Z M78.96,40 L65.44,40 C65.76,42.64 66,45.28 66,48 C66,50.72 65.76,53.36 65.44,56 L78.96,56 C79.6,53.44 80,50.76 80,48 C80,45.24 79.6,42.56 78.96,40 Z M38.64,40 C38.28,42.6 38,45.28 38,48 C38,50.72 38.28,53.36 38.64,56 L57.36,56 C57.72,53.36 58,50.72 58,48 C58,45.28 57.72,42.6 57.36,40 L38.64,40 Z" id="Shape" fill="#00A69B" fill-rule="nonzero" opacity="0.496521577"></path>
            <path d="M47.96,8 C25.88,8 8,25.92 8,48 C8,70.08 25.88,88 47.96,88 C70.08,88 88,70.08 88,48 C88,25.92 70.08,8 47.96,8 Z M75.68,32 L63.88,32 C62.6,27 60.76,22.2 58.36,17.76 C65.72,20.28 71.84,25.4 75.68,32 Z M48,16.16 C51.32,20.96 53.92,26.28 55.64,32 L40.36,32 C42.08,26.28 44.68,20.96 48,16.16 Z M17.04,56 C16.4,53.44 16,50.76 16,48 C16,45.24 16.4,42.56 17.04,40 L30.56,40 C30.24,42.64 30,45.28 30,48 C30,50.72 30.24,53.36 30.56,56 L17.04,56 Z M20.32,64 L32.12,64 C33.4,69 35.24,73.8 37.64,78.24 C30.28,75.72 24.16,70.64 20.32,64 Z M32.12,32 L20.32,32 C24.16,25.36 30.28,20.28 37.64,17.76 C35.24,22.2 33.4,27 32.12,32 Z M48,79.84 C44.68,75.04 42.08,69.72 40.36,64 L55.64,64 C53.92,69.72 51.32,75.04 48,79.84 Z M57.36,56 L38.64,56 C38.28,53.36 38,50.72 38,48 C38,45.28 38.28,42.6 38.64,40 L57.36,40 C57.72,42.6 58,45.28 58,48 C58,50.72 57.72,53.36 57.36,56 Z M58.36,78.24 C60.76,73.8 62.6,69 63.88,64 L75.68,64 C71.84,70.6 65.72,75.72 58.36,78.24 Z M65.44,56 C65.76,53.36 66,50.72 66,48 C66,45.28 65.76,42.64 65.44,40 L78.96,40 C79.6,42.56 80,45.24 80,48 C80,50.76 79.6,53.44 78.96,56 L65.44,56 Z" id="Shape" fill="#575752" fill-rule="nonzero"></path>
        </g>
    </g>
</svg>