<?xml version="1.0" encoding="UTF-8"?>
<svg width="96px" height="96px" viewBox="0 0 96 96" version="1.1" xmlns="http://www.w3.org/2000/svg" xmlns:xlink="http://www.w3.org/1999/xlink">
    <!-- Generator: Sketch 52.6 (67491) - http://www.bohemiancoding.com/sketch -->
    <title>app-icon-publish</title>
    <desc>Created with Sketch.</desc>
    <g id="app-icon-publish" stroke="none" stroke-width="1" fill="none" fill-rule="evenodd">
        <g id="cloud_upload-24px" transform="translate(3.000000, 3.000000)">
            <polygon id="Path" points="0 0 90 0 90 90 0 90"></polygon>
            <path d="M72.0375,45.15 L66.3,44.7375 L65.175,39.1125 C63.3,29.475 54.825,22.5 45,22.5 C37.275,22.5 30.3,26.775 26.7,33.6 L24.825,37.1625 L20.8125,37.575 C13.2375,38.4 7.5,44.8125 7.5,52.5 C7.5,60.7875 14.2125,67.5 22.5,67.5 L71.25,67.5 C77.4375,67.5 82.5,62.4375 82.5,56.25 C82.5,50.4375 77.925,45.525 72.0375,45.15 Z M50.4375,48.75 L50.4375,60 L39.525,60 L39.525,48.75 L30,48.75 L45,33.75 L60,48.75 L50.4375,48.75 Z" id="Shape" fill="#00A69B" fill-rule="nonzero" opacity="0.497618757"></path>
            <path d="M72.5625,37.65 C70.0125,24.7125 58.65,15 45,15 C34.1625,15 24.75,21.15 20.0625,30.15 C8.775,31.35 0,40.9125 0,52.5 C0,64.9125 10.0875,75 22.5,75 L71.25,75 C81.6,75 90,66.6 90,56.25 C90,46.35 82.3125,38.325 72.5625,37.65 Z M71.25,67.5 L22.5,67.5 C14.2125,67.5 7.5,60.7875 7.5,52.5 C7.5,44.8125 13.2375,38.4 20.85,37.6125 L24.8625,37.2 L26.7375,33.6375 C30.3,26.775 37.275,22.5 45,22.5 C54.825,22.5 63.3,29.475 65.2125,39.1125 L66.3375,44.7375 L72.075,45.15 C77.925,45.525 82.5,50.4375 82.5,56.25 C82.5,62.4375 77.4375,67.5 71.25,67.5 Z M30,48.75 L39.5625,48.75 L39.5625,60 L50.4375,60 L50.4375,48.75 L60,48.75 L45,33.75 L30,48.75 Z" id="Shape" fill="#575752" fill-rule="nonzero"></path>
        </g>
    </g>
</svg>