<svg xmlns="http://www.w3.org/2000/svg" width="60" height="60" viewBox="0 0 60 60">
  <path fill="#D34836" fill-rule="evenodd" d="M216.869136,100.812541 C217.605792,103.415114 218,106.161521 218,109 C218,125.568543 204.568543,139 188,139 C171.431457,139 158,125.568543 158,109 C158,92.4314567 171.431457,79 188,79 C200.506679,79 211.225875,86.6531186 215.729943,97.531711 C216.170542,98.5958807 216.551669,99.6909215 216.869136,100.812541 L216.869136,100.812541 Z M216.869136,100.812541 C216.551637,99.6908309 216.170525,98.5958395 215.729943,97.531711 L209.764491,97.531711 L209.764491,89.718241 L206.415663,89.718241 L206.415663,97.531711 L198.601773,97.531711 L198.601773,100.812541 L206.415663,100.812541 L206.415663,108.695269 L209.764491,108.695269 L209.764491,100.812541 L216.869136,100.812541 L216.869136,100.812541 Z M158,109 C158,116.404555 160.682578,123.182559 165.128886,128.415166 C165.967739,127.004513 167.268444,125.617623 169.195361,124.477923 C173.543149,121.81396 179.398839,121.462116 182.565436,121.261062 C181.585299,120.004476 180.454371,118.672495 180.454371,116.486036 C180.454371,115.304845 180.806216,114.601157 181.15806,113.77181 C180.378976,113.847205 179.625025,113.9226 178.921337,113.9226 C171.507479,113.9226 167.310482,108.393622 167.310482,102.940039 C167.310482,99.7231786 168.793254,96.1494481 171.783928,93.5633941 C175.779872,90.2786783 180.529767,89.718241 184.299525,89.718241 L198.7,89.718241 L194.226554,92.2339261 L189.903898,92.2339261 C191.512328,93.5633941 194.854847,96.3605545 194.854847,101.683453 C194.854847,106.860587 191.914436,109.298364 188.999156,111.610482 C188.069283,112.515224 187.038882,113.495361 187.038882,115.028396 C187.038882,116.561431 188.069283,117.415909 188.848366,118.044202 L191.361538,120.004476 C194.452739,122.567912 197.24236,124.955425 197.24236,129.780715 C197.24236,132.962815 195.757371,136.156655 192.863979,138.607706 C191.307191,138.861514 189.710154,138.9955 188.082644,138.999889 C191.02066,137.711108 192.542729,135.353076 192.542729,132.520073 C192.542729,128.951369 190.255742,127.06649 184.927818,123.2716 C184.37492,123.221337 184.023076,123.221337 183.319388,123.221337 C182.691095,123.221337 178.921337,123.346995 175.980925,124.327132 C174.44789,124.88003 169.974444,126.563855 169.974444,131.539936 C169.974444,132.080714 170.032013,132.605001 170.144333,133.109948 C162.775627,127.643728 158,118.879568 158,109 L158,109 Z M186.963487,110.002052 C188.571917,108.393622 188.697576,106.156899 188.697576,104.900313 C188.697576,99.8488372 185.706901,92.0253329 179.901474,92.0253329 C178.09199,92.0253329 176.131716,92.9351011 175.000788,94.3349379 C173.819597,95.8026303 173.467753,97.6875093 173.467753,99.4969931 C173.467753,104.196625 176.181979,111.962326 182.213592,111.962326 C183.947681,111.962326 185.832559,111.107848 186.963487,110.002052 L186.963487,110.002052 Z" transform="translate(-158 -79)"/>
</svg>
