<svg xmlns="http://www.w3.org/2000/svg" width="60" height="60" viewBox="0 0 60 60">
  <path fill="#007BB6" fill-rule="evenodd" d="M346,139 C362.568543,139 376,125.568543 376,109 C376,92.4314567 362.568543,79 346,79 C329.431457,79 316,92.4314567 316,109 C316,125.568543 329.431457,139 346,139 L346,139 Z M338.353556,123.136954 L331.564711,123.136954 L331.564711,102.709814 L338.353556,102.709814 L338.353556,123.136954 L338.353556,123.136954 Z M334.959269,99.9216886 L334.915885,99.9216886 C332.636712,99.9216886 331.163269,98.3522579 331.163269,96.3908761 C331.163269,94.3880081 332.681588,92.862504 335.004009,92.862504 C337.326431,92.862504 338.756625,94.3880081 338.800687,96.3908761 C338.800687,98.3522579 337.326431,99.9216886 334.959269,99.9216886 L334.959269,99.9216886 Z M362.836459,123.136954 L356.047885,123.136954 L356.047885,112.208423 C356.047885,109.46341 355.065499,107.590289 352.607909,107.590289 C350.732347,107.590289 349.615198,108.853046 349.124548,110.07269 C348.945045,110.509788 348.900983,111.118796 348.900983,111.729296 L348.900983,123.137496 L342.111323,123.137496 C342.111323,123.137496 342.200804,104.627134 342.111323,102.710357 L348.900983,102.710357 L348.900983,105.60369 C349.802022,104.212813 351.415787,102.230146 355.020217,102.230146 C359.48759,102.230146 362.836731,105.150323 362.836731,111.424656 L362.836459,123.136954 L362.836459,123.136954 Z" transform="translate(-316 -79)"/>
</svg>
