<svg xmlns="http://www.w3.org/2000/svg" width="60" height="60" viewBox="0 0 60 60">
  <path fill="#4099FF" fill-rule="evenodd" d="M30,60 C46.5685433,60 60,46.5685433 60,30 C60,13.4314567 46.5685433,0 30,0 C13.4314567,0 0,13.4314567 0,30 C0,46.5685433 13.4314567,60 30,60 L30,60 Z M34.1672042,18.28308 C31.5479417,19.2364075 29.8925679,21.6938738 30.0811548,24.3843758 L30.1440171,25.4224435 L29.0963121,25.2953331 C25.282666,24.8080769 21.9509642,23.1556426 19.1221608,20.3804004 L17.7391902,19.0033719 L17.3829706,20.0202545 C16.628623,22.2870554 17.1105673,24.6809665 18.6821247,26.2910307 C19.5202887,27.180803 19.3317018,27.3079133 17.8858689,26.778287 C17.3829706,26.6088065 16.9429345,26.4816962 16.9010263,26.5452514 C16.7543476,26.6935467 17.257246,28.6213867 17.6553739,29.3840487 C18.2001804,30.4433014 19.3107477,31.4813691 20.5260855,32.0957357 L21.5528363,32.582992 L20.3374986,32.604177 C19.164069,32.604177 19.1221608,32.6253621 19.2478854,33.0702482 C19.6669674,34.4472768 21.3223412,35.9090455 23.166302,36.5445972 L24.4654562,36.9894833 L23.3339348,37.6674051 C21.6576068,38.6419176 19.6879215,39.192729 17.7182361,39.2350991 C16.7753017,39.2562842 16,39.3410244 16,39.4045796 C16,39.6164301 18.5564001,40.8027932 20.0441412,41.2688644 C24.5073644,42.645893 29.8087515,42.0527114 33.7900304,39.7011703 C36.6188338,38.027551 39.4476372,34.7014974 40.7677455,31.4813691 C41.4801849,29.7653797 42.1926242,26.6299916 42.1926242,25.1258527 C42.1926242,24.1513402 42.2554865,24.0242299 43.4289161,22.8590518 C44.1204014,22.1811301 44.7699785,21.4396532 44.8957031,21.2278026 C45.1052441,20.8252866 45.08429,20.8252866 44.0156309,21.1854325 C42.2345324,21.8209842 41.9830832,21.7362439 42.8631554,20.7829165 C43.5127325,20.1049947 44.2880342,18.8762616 44.2880342,18.5161156 C44.2880342,18.4525605 43.9737227,18.5584857 43.617503,18.7491512 C43.2403292,18.9610018 42.4021652,19.2787776 41.7735422,19.4694431 L40.6420209,19.829589 L39.61527,19.1304822 C39.0495093,18.7491512 38.2532536,18.3254501 37.8341716,18.1983398 C36.7655125,17.901749 35.1310927,17.9441191 34.1672042,18.28308 L34.1672042,18.28308 Z"/>
</svg>
