<svg xmlns="http://www.w3.org/2000/svg" width="60" height="60" viewBox="0 0 60 60">
  <path fill="#CD332D" fill-rule="evenodd" d="M346,60 C362.568543,60 376,46.5685433 376,30 C376,13.4314567 362.568543,0 346,0 C329.431457,0 316,13.4314567 316,30 C316,46.5685433 329.431457,60 346,60 L346,60 Z M337.261754,12 L338.69891,17.2982266 L338.837962,17.2982266 L340.204455,12 L342.454171,12 L339.879573,19.7552578 L339.879573,25.2545273 L337.666967,25.2545273 L337.666967,20.0030566 L335.033649,12 L337.261754,12 L337.261754,12 Z M343.407701,15.9030664 C343.936398,15.4542246 344.649005,15.2294063 345.539905,15.2294063 C346.352393,15.2294063 347.020142,15.4661484 347.540948,15.9399219 C348.057773,16.4126113 348.318246,17.0226055 348.318246,17.7680254 L348.318246,22.8193926 C348.318246,23.6552891 348.063744,24.3101602 347.556659,24.7868965 C347.043602,25.2625488 346.344645,25.501459 345.449905,25.501459 C344.592346,25.501459 343.903199,25.2545996 343.386232,24.7651445 C342.873246,24.2734492 342.612915,23.6117129 342.612915,22.7808027 L342.612773,17.713248 C342.612773,16.9539531 342.877085,16.3508965 343.407701,15.9030664 L343.407701,15.9030664 Z M344.846706,23.5875762 C344.985758,23.7348535 345.185521,23.8074805 345.445853,23.8074805 C345.712227,23.8074805 345.921659,23.7319629 346.080261,23.5836016 C346.237014,23.4322773 346.315355,23.2263926 346.315355,22.9655859 L346.315355,17.6385254 C346.315355,17.4246914 346.234953,17.2524824 346.074431,17.1200918 C345.91391,16.9887852 345.704408,16.9240352 345.445853,16.9240352 C345.205071,16.9240352 345.01128,16.9887852 344.860498,17.1200918 C344.711706,17.2524824 344.635355,17.4245469 344.635355,17.6385254 L344.635355,22.9656582 C344.635284,23.2333301 344.707725,23.4392871 344.846706,23.5875762 L344.846706,23.5875762 Z M355.519526,25.2545996 L353.553744,25.2545996 L353.553744,24.1748789 C353.195379,24.5719063 352.817607,24.8775176 352.42391,25.0844141 C352.032346,25.2923945 351.652441,25.3960234 351.284265,25.3960234 C350.826232,25.3960234 350.487417,25.2496855 350.256517,24.9591055 C350.027393,24.6675137 349.911872,24.2316797 349.911872,23.6484238 L349.911872,15.4761211 L351.873673,15.4761211 L351.873673,22.9725957 C351.873673,23.2044961 351.918815,23.3716465 352.000995,23.4751309 C352.081256,23.5787598 352.216327,23.6313691 352.40045,23.6313691 C352.543341,23.6313691 352.727464,23.5617773 352.948626,23.4254121 C353.167867,23.2881074 353.37154,23.112791 353.553602,22.8979453 L353.553602,15.4761211 L355.519526,15.4761211 L355.519526,25.2545996 L355.519526,25.2545996 Z M345.994242,28.9784473 C345.994242,28.9773633 333.915687,28.9964414 332.478602,30.4283125 C331.041445,31.8623516 331.037536,38.941998 331.037536,38.9827559 C331.037536,39.0364492 331.041517,46.1040996 332.478602,47.5382109 C333.915545,48.9691426 345.994242,49 345.994242,49 C345.994242,49 358.074645,48.9691426 359.50782,47.5381387 C360.950877,46.0991133 360.962536,38.9827559 360.962536,38.9827559 C360.962536,38.9418535 360.946967,31.8623516 359.50782,30.4283125 C358.074645,28.9964414 345.994242,28.9773633 345.994242,28.9784473 L345.994242,28.9784473 Z M337.91564,34.5990508 L337.91564,44.8838945 L335.947867,44.8838945 L335.947867,34.5990508 L333.913555,34.5990508 L333.913555,32.8515234 L339.949882,32.8515234 L339.949953,34.5990508 L337.91564,34.5990508 L337.91564,34.5990508 Z M343.957796,44.8839668 L343.957796,43.9077305 C343.632844,44.2699258 343.299929,44.5435957 342.949526,44.7307637 C342.600972,44.9219063 342.264147,45.0133223 341.935213,45.0133223 C341.529858,45.0133223 341.230284,44.8839668 341.022844,44.6173789 C340.821161,44.3515137 340.71737,43.9586055 340.71737,43.4281035 L340.71737,36.0061348 L342.461991,36.0061348 L342.461991,42.8150742 C342.461991,43.0260176 342.499171,43.1772695 342.569763,43.2707812 C342.646114,43.3663164 342.765545,43.4121328 342.928057,43.4121328 C343.055379,43.4121328 343.21981,43.3494063 343.415592,43.2250371 C343.613365,43.099584 343.791517,42.942334 343.957867,42.7503242 L343.957867,36.0062793 L345.702417,36.0062793 L345.702346,44.8839668 L343.957796,44.8839668 L343.957796,44.8839668 Z M351.623223,44.4948887 C351.35109,44.8311406 350.953697,44.9962676 350.436801,44.9962676 C350.094147,44.9962676 349.790592,44.9337578 349.524289,44.8043301 C349.258128,44.6750469 349.005403,44.4759551 348.778412,44.2033691 L348.778412,44.8839668 L347.014384,44.8839668 L347.014384,32.8515234 L348.778412,32.8515234 L348.778412,36.7256113 C349.015284,36.4568555 349.263957,36.248875 349.526351,36.1096914 C349.792512,35.9684121 350.060948,35.8986758 350.330948,35.8986758 C350.885095,35.8986758 351.30609,36.0877949 351.595853,36.4640098 C351.889526,36.8431152 352.034479,37.3973926 352.034479,38.1238789 L352.034479,43.0498652 C352.034336,43.677709 351.897133,44.1594316 351.623223,44.4948887 L351.623223,44.4948887 Z M354.747986,40.657584 L354.747986,42.3303887 C354.747986,42.7981641 354.804929,43.1215527 354.918318,43.3036621 C355.035758,43.483748 355.23154,43.5724902 355.509645,43.5724902 C355.799265,43.5724902 356.001019,43.4957441 356.11654,43.342541 C356.230142,43.1892656 356.290782,42.8529414 356.290782,42.3303887 L356.290782,41.9254121 L358.086232,41.9254121 L358.086232,42.3812637 C358.086232,43.2918828 357.868768,43.9774668 357.428365,44.4401836 C356.993791,44.8979863 356.339692,45.1257676 355.470474,45.1257676 C354.689194,45.1257676 354.072417,44.8838945 353.624052,44.3942949 C353.175545,43.9078027 352.948412,43.2368887 352.948412,42.3811914 L352.948412,38.3945859 C352.948412,37.6273418 353.197085,36.9963906 353.690521,36.5127168 C354.183815,36.0281035 354.818223,35.7863027 355.601493,35.7863027 C356.400261,35.7863027 357.015118,36.0111211 357.443863,36.4599629 C357.872607,36.9077207 358.086161,37.5526191 358.086161,38.3945859 L358.086161,40.6575117 L354.747986,40.657584 L354.747986,40.657584 Z M349.508578,37.3077832 C349.383318,37.3077832 349.260047,37.334666 349.138555,37.3943574 C349.017204,37.4521699 348.897773,37.5427188 348.778412,37.6651367 L348.778412,43.1961309 C348.919313,43.3393613 349.058436,43.447832 349.193436,43.5096191 C349.32673,43.5722012 349.465711,43.606166 349.614431,43.606166 C349.827844,43.606166 349.984597,43.5434395 350.084408,43.4160352 C350.184076,43.2915938 350.236967,43.0905508 350.236967,42.8050293 L350.236967,38.221293 C350.236967,37.9216797 350.176185,37.6938262 350.052986,37.5386719 C349.925664,37.3853965 349.74346,37.3077832 349.508578,37.3077832 L349.508578,37.3077832 Z M355.527346,37.3396523 C355.249384,37.3396523 355.049692,37.4182051 354.928199,37.5844883 C354.806848,37.7395703 354.748128,38.0083262 354.748128,38.379627 L354.748128,39.2762266 L356.290995,39.2762266 L356.290995,38.379627 C356.290995,38.0083984 356.228365,37.7397871 356.106872,37.5844883 C355.989431,37.4182051 355.79173,37.3396523 355.527346,37.3396523 L355.527346,37.3396523 Z" transform="translate(-316)"/>
</svg>
