<?xml version="1.0" encoding="UTF-8"?>
<svg width="285px" height="99px" viewBox="0 0 285 99" version="1.1" xmlns="http://www.w3.org/2000/svg" xmlns:xlink="http://www.w3.org/1999/xlink">
    <!-- Generator: Sketch 52.6 (67491) - http://www.bohemiancoding.com/sketch -->
    <title>Artboard@2x</title>
    <desc>Created with Sketch.</desc>
    <defs>
        <linearGradient x1="50%" y1="2.47661613%" x2="50%" y2="97.2595082%" id="linearGradient-1">
            <stop stop-color="#FF4F00" stop-opacity="0.980442213" offset="0%"></stop>
            <stop stop-color="#E54903" offset="100%"></stop>
        </linearGradient>
    </defs>
    <g id="Artboard" stroke="none" stroke-width="1" fill="none" fill-rule="evenodd">
        <path d="M37.3781198,0 L75.9831811,0 C81.0554043,0 85.8692476,0.489401886 90.4248555,1.46822034 C94.9804633,2.44703879 98.972431,4.07837841 102.400878,6.36228814 C105.829325,8.64619786 108.553256,11.7224383 110.572752,15.5911017 C112.592249,19.4597651 113.601982,24.2838694 113.601982,30.0635593 C113.601982,37.0551197 111.770373,42.9978569 108.107101,47.8919492 C104.443828,52.7860414 99.0898953,55.8855867 92.0451409,57.190678 L117.40613,99 L91.0588802,99 L70.2065113,59.4279661 L59.3576437,59.4279661 L59.3576437,99 L37.3781198,99 L37.3781198,0 Z M57.9252175,39.9915254 L70.8875009,39.9915254 C72.8600321,39.9915254 74.9499446,39.9216109 77.1573009,39.7817797 C79.3646573,39.6419485 81.3606412,39.2224611 83.1453123,38.5233051 C84.9299834,37.824149 86.4093596,36.728821 87.5834854,35.2372881 C88.7576111,33.7457553 89.3446652,31.6483186 89.3446652,28.9449153 C89.3446652,26.4279535 88.8280576,24.4237363 87.794827,22.9322034 C86.7615963,21.4406705 85.4465952,20.2987328 83.8497842,19.5063559 C82.2529732,18.7139791 80.4213645,18.1779675 78.3549032,17.8983051 C76.2884419,17.6186427 74.2689759,17.4788136 72.2964447,17.4788136 L57.9252175,17.4788136 L57.9252175,39.9915254 Z M122.50181,0 L155.109259,0 C163.005689,0 170.507185,0.885584364 177.613972,2.65677966 C184.720759,4.42797496 190.921686,7.29447172 196.216939,11.2563559 C201.512192,15.2182401 205.715817,20.3686124 208.82794,26.7076271 C211.940062,33.0466419 213.4961,40.7372429 213.4961,49.779661 C213.4961,57.7966503 211.986511,64.8580203 208.967288,70.9639831 C205.948064,77.0699458 201.883786,82.1970132 196.774332,86.345339 C191.664877,90.4936648 185.765868,93.6398198 179.077127,95.7838983 C172.388386,97.9279768 165.374603,99 158.035568,99 L122.50181,99 L122.50181,0 Z M143.048908,79.1207627 L154.461353,79.1207627 C159.533576,79.1207627 164.253491,78.608056 168.621239,77.5826271 C172.988986,76.5571983 176.769615,74.8559441 179.963237,72.4788136 C183.156859,70.101683 185.66945,66.9788329 187.501086,63.1101695 C189.332722,59.2415061 190.248527,54.5106212 190.248527,48.9173729 C190.248527,44.069891 189.332722,39.8517129 187.501086,36.2627119 C185.66945,32.6737109 183.203823,29.7139947 180.104131,27.3834746 C177.004439,25.0529544 173.364704,23.3050906 169.184816,22.1398305 C165.004929,20.9745704 160.613764,20.3919492 156.011191,20.3919492 L143.048908,20.3919492 L143.048908,79.1207627 Z M222.301999,0 L244.281523,0 L244.281523,78.8644068 L285,78.8644068 L285,99 L222.301999,99 L222.301999,0 Z M14.6695918,99 C6.56779995,99 1.24344979e-14,92.4817927 1.24344979e-14,84.4411765 C1.24344979e-14,76.4005603 6.56779995,69.8823529 14.6695918,69.8823529 C22.7713836,69.8823529 29.3391835,76.4005603 29.3391835,84.4411765 C29.3391835,92.4817927 22.7713836,99 14.6695918,99 Z M14.6695918,29.1176471 C6.56779995,29.1176471 1.24344979e-14,22.5994397 1.24344979e-14,14.5588235 C1.24344979e-14,6.51820732 6.56779995,-1.42108547e-14 14.6695918,-1.42108547e-14 C22.7713836,-1.42108547e-14 29.3391835,6.51820732 29.3391835,14.5588235 C29.3391835,22.5994397 22.7713836,29.1176471 14.6695918,29.1176471 Z M14.6695918,64.0588235 C6.56779995,64.0588235 1.24344979e-14,57.5406162 1.24344979e-14,49.5 C1.24344979e-14,41.4593838 6.56779995,34.9411765 14.6695918,34.9411765 C22.7713836,34.9411765 29.3391835,41.4593838 29.3391835,49.5 C29.3391835,57.5406162 22.7713836,64.0588235 14.6695918,64.0588235 Z" id="Combined-Shape" fill="url(#linearGradient-1)"></path>
    </g>
</svg>