<?xml version="1.0" encoding="UTF-8"?>
<svg width="512px" height="512px" viewBox="0 0 512 512" xmlns="http://www.w3.org/2000/svg">
    <g id="rdl-icon-padded-" stroke="none" stroke-width="1" fill="none" fill-rule="evenodd">
        <g id="Hex-Icon" transform="translate(40.000000, 20.000000)" fill="#04A6C2" fill-rule="nonzero">
            <path d="M278.912658,380.999605 L163.84,314.477664 L163.84,388.209922 L202.790884,410.705877 C210.428915,415.117196 219.839356,415.117196 227.477386,410.705877 L278.912658,380.999605 Z M122.88,364.553609 L122.88,228.739049 L57.2678381,266.670617 L57.2678381,312.401914 C57.2678381,321.224552 61.9730587,329.377006 69.611089,333.788325 L122.88,364.553609 Z M57.2678381,219.60588 L175.967488,150.983484 L110.869948,113.35148 L69.611089,137.180398 C61.9730587,141.591718 57.2678381,149.744172 57.2678381,158.56681 L57.2678381,219.60588 Z M151.613362,89.8202558 L268.288,157.26828 L268.288,83.8328822 L227.477386,60.2628467 C219.839356,55.8515275 210.428915,55.8515275 202.790884,60.2628467 L151.613362,89.8202558 Z M309.248,107.489195 L309.248,244.074377 L373.000432,207.219961 L373.000432,158.56681 C373.000432,149.744172 368.295212,141.591718 360.657181,137.180398 L309.248,107.489195 Z M373.000432,254.3044 L257.099397,321.305216 L319.656072,357.468381 L360.657181,333.788325 C368.295212,329.377006 373.000432,321.224552 373.000432,312.401914 L373.000432,254.3044 Z M163.84,205.059339 L163.84,267.393225 L216.375002,297.762997 L268.288,267.752797 L268.288,204.352719 L216.673732,174.515211 L163.84,205.059339 Z M256.774943,11.0106772 L390.011339,87.9342705 C415.439566,102.615173 431.104,129.746601 431.104,159.108407 L431.104,312.955593 C431.104,342.317399 415.439566,369.448827 390.011339,384.129729 L256.774943,461.053323 C231.346716,475.734226 200.017848,475.734226 174.589621,461.053323 L41.353225,384.129729 C15.9249979,369.448827 0.260564102,342.317399 0.260564102,312.955593 L0.260564102,159.108407 C0.260564102,129.746601 15.9249979,102.615173 41.353225,87.9342705 L174.589621,11.0106772 C200.017848,-3.67022572 231.346716,-3.67022572 256.774943,11.0106772 Z" id="Combined-Shape"></path>
        </g>
    </g>
</svg>
